<svg xmlns="http://www.w3.org/2000/svg" viewBox="0 0 500 500"><g id="freepik--background-complete--inject-35"><rect x="58.73" y="65.69" width="26.48" height="11.19" style="fill:#ebebeb"></rect><rect x="43.96" y="51.58" width="26.48" height="11.19" style="fill:#ebebeb"></rect><rect x="73.5" y="51.58" width="26.48" height="11.19" style="fill:#ebebeb"></rect><rect x="414.79" y="51.58" width="26.48" height="11.19" style="fill:#ebebeb"></rect><rect x="414.79" y="353.53" width="26.48" height="11.19" style="fill:#ebebeb"></rect><rect x="429.56" y="339.42" width="26.48" height="11.19" style="fill:#ebebeb"></rect><rect x="43.96" y="353.52" width="26.48" height="11.19" style="fill:#ebebeb"></rect><rect x="116.92" y="220.38" width="26.48" height="11.19" transform="translate(260.32 451.95) rotate(180)" style="fill:#ebebeb"></rect><rect x="131.69" y="234.49" width="26.48" height="11.19" transform="translate(289.86 480.17) rotate(180)" style="fill:#ebebeb"></rect><polygon points="289.81 148.6 292.43 153.91 298.3 154.76 294.05 158.9 295.06 164.74 289.81 161.98 284.57 164.74 285.57 158.9 281.33 154.76 287.19 153.91 289.81 148.6" style="fill:#ebebeb"></polygon><polygon points="439.08 221.89 441.7 227.2 447.57 228.06 443.33 232.19 444.33 238.03 439.08 235.27 433.84 238.03 434.84 232.19 430.6 228.06 436.46 227.2 439.08 221.89" style="fill:#ebebeb"></polygon><polygon points="54.39 286.84 57.02 292.15 62.88 293 58.64 297.14 59.64 302.98 54.39 300.22 49.15 302.98 50.15 297.14 45.91 293 51.77 292.15 54.39 286.84" style="fill:#ebebeb"></polygon><polygon points="234.43 98.59 236.05 101.88 239.67 102.4 237.05 104.96 237.67 108.57 234.43 106.86 231.19 108.57 231.81 104.96 229.19 102.4 232.81 101.88 234.43 98.59" style="fill:#ebebeb"></polygon><polygon points="299.46 346.14 301.08 349.42 304.7 349.94 302.08 352.5 302.7 356.11 299.46 354.41 296.22 356.11 296.84 352.5 294.22 349.94 297.84 349.42 299.46 346.14" style="fill:#ebebeb"></polygon><polygon points="99.43 159.77 101.05 163.06 104.67 163.58 102.05 166.14 102.67 169.75 99.43 168.04 96.19 169.75 96.81 166.14 94.19 163.58 97.81 163.06 99.43 159.77" style="fill:#ebebeb"></polygon><polygon points="421.98 131.45 423.6 134.73 427.23 135.25 424.61 137.81 425.22 141.42 421.98 139.72 418.74 141.42 419.36 137.81 416.74 135.25 420.36 134.73 421.98 131.45" style="fill:#ebebeb"></polygon><polygon points="351.27 223.8 352.27 225.82 354.51 226.15 352.89 227.73 353.27 229.96 351.27 228.91 349.27 229.96 349.65 227.73 348.03 226.15 350.27 225.82 351.27 223.8" style="fill:#ebebeb"></polygon><polygon points="427.23 368.79 428.23 370.82 430.47 371.15 428.85 372.73 429.23 374.96 427.23 373.9 425.22 374.96 425.61 372.73 423.99 371.15 426.23 370.82 427.23 368.79" style="fill:#ebebeb"></polygon><polygon points="450.85 67.86 451.85 69.89 454.09 70.21 452.47 71.79 452.85 74.02 450.85 72.97 448.85 74.02 449.23 71.79 447.61 70.21 449.85 69.89 450.85 67.86" style="fill:#ebebeb"></polygon><polygon points="170.97 241.74 171.97 243.77 174.21 244.09 172.59 245.67 172.97 247.9 170.97 246.85 168.97 247.9 169.35 245.67 167.73 244.09 169.97 243.77 170.97 241.74" style="fill:#ebebeb"></polygon><polygon points="286.33 368.31 287.33 370.34 289.57 370.66 287.95 372.24 288.33 374.47 286.33 373.42 284.32 374.47 284.71 372.24 283.09 370.66 285.32 370.34 286.33 368.31" style="fill:#ebebeb"></polygon><polygon points="174 40.21 175 42.23 177.24 42.56 175.62 44.14 176 46.37 174 45.32 171.99 46.37 172.38 44.14 170.75 42.56 172.99 42.23 174 40.21" style="fill:#ebebeb"></polygon><polygon points="57.63 90.29 58.64 92.32 60.88 92.64 59.26 94.22 59.64 96.45 57.63 95.4 55.63 96.45 56.02 94.22 54.39 92.64 56.63 92.32 57.63 90.29" style="fill:#ebebeb"></polygon></g><g id="freepik--Shadow--inject-35"><ellipse cx="250" cy="445.33" rx="203.95" ry="18.34" style="fill:#ebebeb"></ellipse></g><g id="freepik--Plant--inject-35"><path d="M234.62,341.32c13.49,13.2,15.75,33.62,12.91,51.52-.07.4-.7.29-.7-.09,0-4.07.12-8.11.11-12.13-.07-.19-.13-.36-.21-.54-3.52-2.56-6.75-5.46-8.76-9.42-2.25-4.43-3.14-9.42-4.86-14.05-.16-.44.31-.31.62-.08,8.21,6.05,10.82,12.56,13.17,21.26a72.5,72.5,0,0,0-1.42-13.55c-1.77-8.26-5.28-16.44-11.21-22.57C234.05,341.44,234.39,341.08,234.62,341.32Z" style="fill:#263238"></path><path d="M232.09,342.85c-2.32.08-3.77,3.79-5.58,4.87a1.74,1.74,0,0,1-2.56-.4c-1.79-2.5.66-5.59,3-7.31-1.66.68-3,1.87-4.81,2.21a1.67,1.67,0,0,1-2.17-1.3c-.79-3.41,3.49-4.92,6.42-5-1.42-1-5.5-3.67-3.33-5s7,2.51,8.54,3.78c2.29,1.86,5,4.64,5.13,7.55C236.85,345.66,233.88,343.57,232.09,342.85Z" style="fill:#FFC727"></path><path d="M232.09,342.85c-2.32.08-3.77,3.79-5.58,4.87a1.74,1.74,0,0,1-2.56-.4c-1.79-2.5.66-5.59,3-7.31-1.66.68-3,1.87-4.81,2.21a1.67,1.67,0,0,1-2.17-1.3c-.79-3.41,3.49-4.92,6.42-5-1.42-1-5.5-3.67-3.33-5s7,2.51,8.54,3.78c2.29,1.86,5,4.64,5.13,7.55C236.85,345.66,233.88,343.57,232.09,342.85Z" style="opacity:0.1"></path><path d="M232.76,343.43c-3-1.35-8.66.59-9.15-.53-1-2.29,3.57-3.86,6-4.16-2.26-.61-6.6-1.59-6.47-3.77.17-2.67,6.66-.38,9.94,2.14,4.14,3.18,4.11,6.24,3.43,6.85C235.6,344.8,233.25,343.65,232.76,343.43Z" style="fill:#FFC727"></path><path d="M265.34,340c-14,12.68-17,33-14.86,51,.06.41.69.32.7-.06.16-4.07.19-8.11.36-12.13.08-.18.14-.35.23-.53,3.61-2.42,7-5.19,9.11-9.07,2.42-4.34,3.49-9.3,5.39-13.86.18-.44-.3-.32-.62-.11-8.43,5.74-11.29,12.14-14,20.75a72.53,72.53,0,0,1,1.94-13.49c2.09-8.18,5.9-16.22,12.06-22.12C265.91,340.15,265.58,339.78,265.34,340Z" style="fill:#263238"></path><path d="M267.81,341.64c2.32.17,3.63,3.93,5.4,5.08a1.74,1.74,0,0,0,2.57-.3c1.89-2.44-.45-5.61-2.7-7.42,1.63.74,2.95,2,4.72,2.39a1.68,1.68,0,0,0,2.22-1.22c.91-3.37-3.3-5.05-6.23-5.23,1.46-.94,5.63-3.47,3.52-4.87s-7.07,2.25-8.68,3.45c-2.36,1.77-5.2,4.45-5.41,7.35C263,344.26,266,342.29,267.81,341.64Z" style="fill:#FFC727"></path><path d="M267.81,341.64c2.32.17,3.63,3.93,5.4,5.08a1.74,1.74,0,0,0,2.57-.3c1.89-2.44-.45-5.61-2.7-7.42,1.63.74,2.95,2,4.72,2.39a1.68,1.68,0,0,0,2.22-1.22c.91-3.37-3.3-5.05-6.23-5.23,1.46-.94,5.63-3.47,3.52-4.87s-7.07,2.25-8.68,3.45c-2.36,1.77-5.2,4.45-5.41,7.35C263,344.26,266,342.29,267.81,341.64Z" style="opacity:0.1"></path><path d="M267.12,342.19c3-1.24,8.64.92,9.16-.18,1.07-2.25-3.42-4-5.86-4.39,2.28-.52,6.65-1.33,6.6-3.52-.06-2.67-6.63-.63-10,1.77-4.26,3-4.34,6.07-3.68,6.71C264.23,343.45,266.62,342.39,267.12,342.19Z" style="fill:#FFC727"></path><path d="M251,373.5a137.2,137.2,0,0,1-4.34,20.05.5.5,0,0,1-1-.2c.91-6.18,2.59-12.24,3.51-18.42A92.8,92.8,0,0,0,250.31,356c-.59-10.42-3.42-21.49-10.21-29.64-.15-.19.17-.46.32-.28,13.6,15.86,11.44,35.3,11.43,37,1.92-6.56,3.91-14.09,11.19-20.77.32-.29.56-.16.51.33-1.3,12.18-4.69,18.54-11.75,25.05Q251.5,370.65,251,373.5Z" style="fill:#263238"></path><path d="M240,328.21c-2.45-1.09-5.82,2-8.25,2.24a2,2,0,0,1-2.45-1.71c-.6-3.5,3.5-5.46,6.77-6.09-2.06-.12-4.08.43-6.1-.12a1.93,1.93,0,0,1-1.6-2.44c.9-3.93,6.1-3.35,9.18-1.95-1-1.74-3.85-6.58-.94-6.87s6,6.13,7,8.23c1.44,3.08,2.88,7.34,1.52,10.42C243.5,333.51,241.47,329.84,240,328.21Z" style="fill:#FFC727"></path><path d="M240,328.21c-2.45-1.09-5.82,2-8.25,2.24a2,2,0,0,1-2.45-1.71c-.6-3.5,3.5-5.46,6.77-6.09-2.06-.12-4.08.43-6.1-.12a1.93,1.93,0,0,1-1.6-2.44c.9-3.93,6.1-3.35,9.18-1.95-1-1.74-3.85-6.58-.94-6.87s6,6.13,7,8.23c1.44,3.08,2.88,7.34,1.52,10.42C243.5,333.51,241.47,329.84,240,328.21Z" style="opacity:0.1"></path><path d="M240.39,329.14c-2.4-2.89-9.29-3.75-9.23-5.16.13-2.86,5.65-2.2,8.35-1.28-2-1.77-6-5-4.81-7.17,1.51-2.68,7.09,3,9.23,7.23,2.69,5.38,1.13,8.54.11,8.83C242.64,332,240.78,329.62,240.39,329.14Z" style="fill:#FFC727"></path><path d="M260,377.16,266,423h-36.5c.75-4.06,7.54-45.89,7.54-45.89Z" style="fill:#FFC727"></path></g><g id="freepik--Doves--inject-35"><path d="M333.9,95.19l-8.72,9.32s-19.34-1.78-21.13-3.65a8.12,8.12,0,0,1-.94-1.41,80.26,80.26,0,0,0,13.6-2.21,46.41,46.41,0,0,1-14.55.22,37.86,37.86,0,0,1-1.87-5.52,33.87,33.87,0,0,0,18.26-1c-9.24,1-15.73-1.06-19-2.57a43.19,43.19,0,0,1-.65-8,32.7,32.7,0,0,0,12.88,5.09,30.64,30.64,0,0,1-12.56-9.74,39.64,39.64,0,0,1,2.19-9,41,41,0,0,1,2.06-4.66c3.24,8,7.6,10.58,7.76,10.67-3.65-4.52-5.12-10.55-5.71-14.22a47.81,47.81,0,0,1,6.47-8A56,56,0,0,0,317.29,74,56.67,56.67,0,0,1,315,47.77C319.5,44,323.11,42.36,323,43,318.73,62.87,330.57,91.19,333.9,95.19Z" style="fill:#dbdbdb"></path><path d="M337.35,102c0,.07-.05.15-.07.23s-.12.39-.18.56l-.09.33,0,0h0c-1.23,4.33-3.38,13.87-12.49,16.72-.85.27-1.75.51-2.68.72h0l-.39.08a0,0,0,0,1,0,0,98.5,98.5,0,0,1-18.35,1.68h-.14a2.62,2.62,0,0,0-.28,0h-.15c-1.94,0-3.14,0-3.14,0s-2.94,3.72-5.68,6.82c0,0,0,0,0,0-.28.21-.23.24-.2.27l-1.05,1.16h0l-.16.17-.52.54h0l-.11.11c-1.13,1.16-2,1.92-2.38,1.86s-1.5-.33-3.16-.73l.44-.55.12-.16h0l.44-.57.3-.38.72-.91,0,0,1.52-1.94h0l.08-.11.18-.23.36-.45.2-.26-.78.74-.95.91-.12.11-1.48,1.41-.11.1-.62.59-.36.34h0l-1.13,1.08,0,0h0l-.22-.06h0c-.79-.19-1.63-.4-2.5-.63h0l-.26-.07h0l-.09,0h0l-.45-.12-.13,0h0l-1-.25.65-.6.05-.05h0l.05,0,.09-.09.23-.21h0l.07-.06.66-.61,1.32-1.22h0l.1-.09.34-.31.83-.78,0,0h0l.51-.47,0,0,.87-.8h0l.1-.09.1-.1.14-.14h0l.53-.49,0,0,3.69-3.41-1.09.76h0l-.25.18-3.49,2.42-.06,0-3.29,2.29-.25.17-.2.15-1,.69-.1.07-.33.23-.24.17-.42.29-.79.55,0,0h0l-1.37,1h0l-.07,0h0l-2-.59h0l-.19-.05h0c-.76-.22-1.46-.44-2.07-.65h0c-1.56-.53-2.56-1-2.49-1.23s.14-.52.31-1.07c0,0,0-.1,0-.15.16-.55.37-1.23.61-2l.23-.08.06,0,.75-.27h0l.22-.08,0,0,.47-.16h0l.1,0,.06,0,.09,0,.41-.15.35-.13h0l.41-.14.34-.13h0l.61-.22.05,0,.06,0h0l.14,0,.5-.18,0,0,.33-.12h.09l10.48-3.75-11.55,2.75-.1,0-.28.06-.1,0-.12,0h0s0,0,0,0h0l-.26.06h0l-.74.18-.53.13h0l-.12,0-.36.08h0l-.08,0h-.05l-.68.16-.31.08.14-.47c.1-.31.19-.62.29-.93a0,0,0,0,1,0,0h0a.14.14,0,0,1,0-.06h0c.08-.24.15-.49.23-.74h0c0-.08.05-.17.08-.26s.08-.26.13-.4h0a1.42,1.42,0,0,1,.05-.16h0a2,2,0,0,1,.07-.23s0,0,0-.05h0c.06-.23.13-.45.2-.67,0-.06,0-.13.07-.2s0,0,0-.06l0-.08s0,0,0,0l.06-.2v0H274l10.85-1.2-10.46-.48c.2-.63.4-1.24.58-1.78l5.79.44-5.5-1.3a14.57,14.57,0,0,1,.8-2.1c.53-.65,16.28.57,16.28.57a149.89,149.89,0,0,1,29-21c2.2-1.17,4.68-8.62,8.54-12.26s13.18-1.16,13,3.47C342.8,86.73,338.83,97.35,337.35,102Z" style="fill:#ebebeb"></path><path d="M336.09,86.42c-1.64-.44-2.32,2.51-.79,2.93S337.47,86.8,336.09,86.42Z" style="fill:#263238"></path><path d="M339.1,88.2a3.39,3.39,0,0,1,2.83-.49c1.31.56,1.08,2.7,1.08,2.7a12.55,12.55,0,0,0-3.27-.6C338.42,89.84,339.1,88.2,339.1,88.2Z" style="fill:#dbdbdb"></path><path d="M339.06,91a3.74,3.74,0,0,0,1.83,1.35,6.82,6.82,0,0,0,2.53-.09Z" style="fill:#FFC727"></path><path d="M339.71,89.68a11.44,11.44,0,0,1,2.65.49,4.51,4.51,0,0,1,2.69,2.71c-.12.1-6.05-1.66-6.05-1.66Z" style="fill:#FFC727"></path><path d="M338.39,88.29a1.76,1.76,0,1,1-1.1,1.89A1.79,1.79,0,0,1,338.39,88.29Z" style="fill:#dbdbdb"></path><path d="M336.56,102.78c-.44.49-.95,2.12-1.83,1.14a4.91,4.91,0,0,1-.74-1.78.14.14,0,0,0,0-.07h0a.07.07,0,0,0-.09,0,.11.11,0,0,0-.09,0c-.63.73-1.48,2.42-2.66,1.84s-.89-2.31-.86-3.33l0,0c.08-.09,0-.27-.14-.21a7.13,7.13,0,0,1-2.13,1c-1.79.21-1-1.51-.73-2.43a.11.11,0,0,0-.19-.09c-.5.83-1.3,2.25,0,2.87a3.07,3.07,0,0,0,2.91-.77c-.29,1.2-.28,3.19,1,3.65s2.38-.93,2.88-2c.07.81.34,1.84,1.13,2.06,1,.28,1.65-1,1.78-1.72A.11.11,0,0,0,336.56,102.78Z" style="fill:#dbdbdb"></path><path d="M334.22,109.9c-.37.51-.68,1.54-1.43,1.52s-.92-1-1.1-1.59l0-.13c0-.17-.21-.31-.32-.16-.52.76-1.17,2.41-2.37,2.12s-.85-2.6-.75-3.45a.14.14,0,0,0,0-.12A.18.18,0,0,0,328,108c-.87.45-3.71,2.54-4.11.51-.22-1.15,1-2.45,1.45-3.42h0a.14.14,0,0,0-.09-.26,7.24,7.24,0,0,1-2.61.33c-1.67-.37-.39-2.18.19-2.93a.1.1,0,0,0-.15-.13c-.74.73-2,2.1-1,3.14a2.86,2.86,0,0,0,2.87.27c-.84,1.1-1.66,2.88-.8,3.89,1,1.18,3.1,0,4.16-.87-.33,1.16-.38,3.1.83,3.59s2.3-.67,2.79-1.74c.14.71.52,1.46,1.24,1.51s1.62-1.12,1.72-1.85C334.48,109.89,334.3,109.78,334.22,109.9Z" style="fill:#dbdbdb"></path><path d="M319.3,92.93l-5.67,11.7s-19.36,4.14-21.67,2.85a12.38,12.38,0,0,1-2.44-2.24c4.83-1.71,9.31-3.77,9.31-3.77a36.74,36.74,0,0,1-11.32,1.29,44.09,44.09,0,0,1-3.3-5.22c5.69.33,11.8,0,11.8,0a35.81,35.81,0,0,1-13.87-4.38,43.23,43.23,0,0,1-2.53-8.8A52.49,52.49,0,0,0,292.54,90a33.11,33.11,0,0,1-13.43-9.77h0a40.35,40.35,0,0,1-.05-5,43.25,43.25,0,0,1,.83-6.38c5.88,9.73,16.71,15,16.71,15A61.1,61.1,0,0,1,280.84,65a49.61,49.61,0,0,1,3.57-8.77A35.36,35.36,0,0,0,295.28,71.7c-5.84-10.16-8-16.49-8.35-19.77,3.06-4.66,5.86-7.12,5.92-6.47C294.74,66.07,314.84,90,319.3,92.93Z" style="fill:#ebebeb"></path><path d="M321.15,97.83c-5.3-2.47-19.95-16.41-24.55-24.65a.18.18,0,0,0-.31.17c7.55,13.9,21.86,24,24.66,24.94C321.21,98.38,321.41,98,321.15,97.83Z" style="fill:#dbdbdb"></path><path d="M321.53,93a2.94,2.94,0,0,0-1.83.07l0,0a10.7,10.7,0,0,1-1.35-1c-.06-.06-.16,0-.1.09a7.54,7.54,0,0,0,2.85,2.06.15.15,0,0,0,.13-.27c-.41-.23-.81-.45-1.19-.68a10.43,10.43,0,0,1,1.48,0A.14.14,0,0,0,321.53,93Z" style="fill:#dbdbdb"></path><path d="M313.72,105.66c-.36-.09-.73-.15-1.11-.21.33-.1.66-.21,1-.33a.12.12,0,0,0-.06-.24c-1.82.32-3.61.81-5.44,1.12s-3.68.38-5.49.74a.1.1,0,0,0,0,.2,24.3,24.3,0,0,0,5.31-.48c1.28-.21,2.59-.44,3.86-.77a6.44,6.44,0,0,0,1.88.28C313.85,106,313.91,105.7,313.72,105.66Z" style="fill:#dbdbdb"></path><path d="M317.59,117.87a2.43,2.43,0,0,0-1.48-1.55,3.24,3.24,0,0,0-2.29.19.26.26,0,0,0-.18.28.17.17,0,0,0,.13.24,1.22,1.22,0,0,1,1,1.57c-.17.65-.76,1-1.19,1.44a.19.19,0,0,0,.16.3,2.55,2.55,0,0,0,2.21-2.22s0-.06,0-.09a1.27,1.27,0,0,1,.18.27c.48.94-.3,1.92-.84,2.61a.21.21,0,0,0,.17.34A3.11,3.11,0,0,0,317.59,117.87Z" style="fill:#FFC727"></path><path d="M323.44,120.07a2.41,2.41,0,0,0-1.48-1.54,3.24,3.24,0,0,0-2.29.18.26.26,0,0,0-.18.28.18.18,0,0,0,.12.25,1.21,1.21,0,0,1,1,1.57c-.18.64-.76,1-1.19,1.43a.19.19,0,0,0,.16.3,2.55,2.55,0,0,0,2.21-2.21s0-.06,0-.1a2.11,2.11,0,0,1,.18.27c.48,1-.3,1.92-.84,2.62a.21.21,0,0,0,.17.34A3.13,3.13,0,0,0,323.44,120.07Z" style="fill:#FFC727"></path><path d="M217.28,154.36l6.48,6.92s14.37-1.31,15.69-2.71a5.13,5.13,0,0,0,.7-1,58.77,58.77,0,0,1-10.1-1.64,34.44,34.44,0,0,0,10.81.17,29.85,29.85,0,0,0,1.39-4.1,25.21,25.21,0,0,1-13.57-.73,26.7,26.7,0,0,0,14.13-1.91,31.34,31.34,0,0,0,.48-5.92,24,24,0,0,1-9.57,3.78,22.63,22.63,0,0,0,9.33-7.23,29.47,29.47,0,0,0-1.62-6.66,32,32,0,0,0-1.53-3.46c-2.41,5.92-5.65,7.86-5.76,7.93,2.7-3.36,3.8-7.84,4.24-10.56a35.58,35.58,0,0,0-4.81-6,41.54,41.54,0,0,1-4,17.35,42.11,42.11,0,0,0,1.69-19.45c-3.32-2.8-6-4-5.9-3.53C228.55,130.35,219.75,151.39,217.28,154.36Z" style="fill:#dbdbdb"></path><path d="M214.72,159.43a.84.84,0,0,0,.05.17c0,.15.09.29.13.42a2.33,2.33,0,0,0,.07.25s0,0,0,0h0c.92,3.22,2.51,10.3,9.28,12.42.63.2,1.3.38,2,.54h0l.29.06h0a73.35,73.35,0,0,0,13.63,1.24h.42c1.44,0,2.33,0,2.33,0s2.19,2.76,4.23,5.06h0c.21.15.18.17.16.19l.77.86h0l.11.12.39.41h0l.08.08c.84.86,1.51,1.43,1.76,1.39s1.12-.25,2.35-.55l-.32-.41-.09-.12h0l-.34-.42-.22-.28-.53-.69h0l-1.14-1.44h0l-.07-.08-.13-.17-.26-.33-.15-.2.57.55.71.68.09.08,1.1,1,.08.07.46.44.27.25h0l.84.8,0,0h0l.17,0h0l1.86-.46h0l.19,0h0l.07,0h0l.33-.08.1,0h0l.71-.19-.48-.44,0,0h0l0,0-.07-.07-.17-.15h0l0,0-.49-.46-1-.91h0l-.07-.07-.25-.23-.63-.58h0l-.38-.35,0,0-.64-.59h0l-.08-.06-.07-.07-.11-.11h0l-.39-.36,0,0-2.74-2.54.81.57h0l.19.13,2.59,1.8.05,0,2.44,1.7.19.13.15.11.74.51.07,0,.25.18.17.12.32.21.58.41,0,0h0l1,.71h0l.05,0h0c.52-.15,1-.29,1.52-.44h0l.14,0h0l1.54-.48h0c1.17-.39,1.91-.72,1.86-.91l-.23-.79a.49.49,0,0,0,0-.11c-.12-.41-.27-.92-.45-1.5l-.17-.06,0,0-.56-.2h0l-.16-.05,0,0-.35-.12h0l-.07,0h-.05l-.06,0-.31-.11-.25-.09h0l-.31-.11-.25-.09h0l-.46-.16h0l-.05,0h0l-.1,0-.37-.13h0l-.25-.09h-.06L251.54,172l8.58,2,.08,0,.2.05.08,0,.09,0h0l.19,0h0l.54.14.4.09h0l.1,0,.26.07h.1l.5.12.24.05c0-.11-.07-.23-.11-.35l-.21-.68v0h0s0,0,0-.05h0c-.05-.19-.11-.37-.17-.55h0l-.06-.2-.09-.29h0a.76.76,0,0,0,0-.11h0c0-.05,0-.11-.05-.16l0,0h0l-.15-.5a.88.88,0,0,0,0-.15s0,0,0,0,0,0,0-.07h0c0-.05,0-.1,0-.15v0h-.11l-8.06-.88,7.77-.37c-.15-.47-.29-.91-.43-1.32l-4.3.33,4.09-1a11.64,11.64,0,0,0-.6-1.55c-.4-.49-12.09.42-12.09.42a111.27,111.27,0,0,0-21.56-15.57c-1.64-.87-3.48-6.41-6.34-9.11s-9.8-.87-9.69,2.57C210.67,148.08,213.61,156,214.72,159.43Z" style="fill:#ebebeb"></path><path d="M215.65,147.85c1.22-.34,1.72,1.86.59,2.17S214.62,148.13,215.65,147.85Z" style="fill:#263238"></path><path d="M213.41,149.17a2.52,2.52,0,0,0-2.1-.37c-1,.42-.8,2-.8,2a9.34,9.34,0,0,1,2.43-.45C213.92,150.38,213.41,149.17,213.41,149.17Z" style="fill:#dbdbdb"></path><path d="M213.45,151.24a2.81,2.81,0,0,1-1.36,1,5,5,0,0,1-1.89-.07Z" style="fill:#FFC727"></path><path d="M213,150.27a8.09,8.09,0,0,0-2,.36,3.35,3.35,0,0,0-2,2c.09.07,4.5-1.24,4.5-1.24Z" style="fill:#FFC727"></path><path d="M213.94,149.24a1.27,1.27,0,0,0-1.66.89,1.27,1.27,0,1,0,2.48.51A1.31,1.31,0,0,0,213.94,149.24Z" style="fill:#dbdbdb"></path><path d="M215.3,160c.33.37.71,1.58,1.36.85a3.71,3.71,0,0,0,.55-1.33s0,0,0-.05h0a.05.05,0,0,1,.07,0,.11.11,0,0,1,.07,0c.46.55,1.1,1.8,2,1.37s.66-1.71.64-2.47l0,0c-.05-.07,0-.2.11-.16a5.31,5.31,0,0,0,1.58.7c1.33.16.77-1.11.55-1.8a.08.08,0,1,1,.14-.07c.37.62,1,1.68,0,2.13a2.27,2.27,0,0,1-2.17-.57c.22.9.22,2.37-.72,2.72s-1.77-.7-2.14-1.48c-.05.6-.25,1.37-.84,1.54s-1.22-.71-1.32-1.29A.07.07,0,0,1,215.3,160Z" style="fill:#dbdbdb"></path><path d="M217,165.29c.28.38.51,1.14,1.06,1.13s.69-.71.82-1.18a.44.44,0,0,1,0-.1c0-.13.15-.23.23-.12.39.56.87,1.79,1.77,1.58s.62-1.94.55-2.56a.12.12,0,0,1,0-.09.13.13,0,0,1,.19-.09c.65.34,2.75,1.89,3.05.38.17-.85-.73-1.82-1.07-2.54h0c-.08-.06,0-.21.07-.19a5.56,5.56,0,0,0,1.94.24c1.24-.27.29-1.62-.14-2.18-.06-.07,0-.15.11-.09.55.54,1.51,1.56.76,2.33a2.14,2.14,0,0,1-2.14.2c.63.82,1.24,2.15.6,2.89s-2.3,0-3.09-.64c.25.86.28,2.3-.62,2.66s-1.71-.5-2.07-1.29c-.11.53-.39,1.09-.92,1.12s-1.2-.83-1.28-1.38C216.84,165.28,217,165.2,217,165.29Z" style="fill:#dbdbdb"></path><path d="M228.13,152.68l4.21,8.69s14.38,3.08,16.09,2.12a9.08,9.08,0,0,0,1.82-1.67c-3.59-1.27-6.92-2.8-6.92-2.8a26.72,26.72,0,0,0,8.41,1,32.73,32.73,0,0,0,2.45-3.87c-4.22.24-8.77,0-8.77,0a26.33,26.33,0,0,0,10.31-3.26,32.68,32.68,0,0,0,1.88-6.53,39.42,39.42,0,0,1-9.6,4.2,24.66,24.66,0,0,0,10-7.26h0a29.35,29.35,0,0,0,0-3.76,32.31,32.31,0,0,0-.62-4.73C253,142,245,145.88,245,145.88a45.34,45.34,0,0,0,11.7-13.95,35.47,35.47,0,0,0-2.65-6.51A26.26,26.26,0,0,1,246,136.91c4.34-7.55,5.95-12.25,6.2-14.68-2.27-3.47-4.35-5.3-4.4-4.81C246.37,132.72,231.44,150.54,228.13,152.68Z" style="fill:#ebebeb"></path><path d="M226.75,156.32c3.94-1.84,14.82-12.19,18.24-18.31.08-.15.3,0,.23.12-5.61,10.33-16.24,17.81-18.32,18.53C226.71,156.73,226.56,156.41,226.75,156.32Z" style="fill:#dbdbdb"></path><path d="M226.47,152.7a2.22,2.22,0,0,1,1.35,0l0,0a7.82,7.82,0,0,0,1-.74.05.05,0,0,1,.08.07,5.63,5.63,0,0,1-2.12,1.53.11.11,0,0,1-.09-.2c.3-.17.59-.33.88-.51a6.72,6.72,0,0,0-1.1,0A.1.1,0,0,1,226.47,152.7Z" style="fill:#dbdbdb"></path><path d="M232.27,162.14a6.78,6.78,0,0,1,.83-.16c-.25-.07-.49-.15-.74-.24a.09.09,0,0,1,0-.18c1.36.24,2.68.6,4,.83s2.74.29,4.08.55c.08,0,.06.14,0,.15a18,18,0,0,1-3.94-.36c-.95-.15-1.92-.33-2.87-.57a4.8,4.8,0,0,1-1.4.21A.12.12,0,0,1,232.27,162.14Z" style="fill:#dbdbdb"></path><path d="M229.39,171.21a1.82,1.82,0,0,1,1.1-1.15,2.47,2.47,0,0,1,1.71.14.2.2,0,0,1,.13.21.14.14,0,0,1-.09.18.89.89,0,0,0-.71,1.16c.13.48.56.72.88,1.07a.14.14,0,0,1-.12.22,1.89,1.89,0,0,1-1.64-1.64s0-.05,0-.07a1.43,1.43,0,0,0-.14.2c-.36.7.22,1.42.63,1.94a.15.15,0,0,1-.13.25A2.32,2.32,0,0,1,229.39,171.21Z" style="fill:#FFC727"></path><path d="M225.05,172.84a1.78,1.78,0,0,1,1.1-1.14,2.38,2.38,0,0,1,1.7.14.2.2,0,0,1,.14.2.14.14,0,0,1-.1.18.91.91,0,0,0-.71,1.17c.13.48.57.72.88,1.07a.13.13,0,0,1-.11.22c-.74-.05-1.69-.86-1.64-1.64V173a1,1,0,0,0-.13.2c-.36.7.22,1.42.62,1.94a.15.15,0,0,1-.12.25A2.32,2.32,0,0,1,225.05,172.84Z" style="fill:#FFC727"></path></g><g id="freepik--Character--inject-35"><path d="M227.61,423h-86.9c-2.74-29.46-5.49-59.65-7.67-83.72-.07-.8-.15-1.6-.22-2.39-2.46-27.23-4.13-46.05-4.13-46.05h82a1.79,1.79,0,0,1,0,.25C211.3,295.55,219.65,360.63,227.61,423Z" style="fill:#37474f"></path><path d="M153.88,423H152.5c-3.79-31.9-6.87-63.86-9.67-95.86v0q-.24-2.87-.5-5.75c-.56-6.57-1.12-13.17-1.66-19.75,0-.2.29-.2.32,0q.91,8.75,1.78,17.46a.09.09,0,0,1,0,.05c.2,2.12.42,4.23.63,6.36h0c2.23,22.08,4.44,44.14,6.86,66.19Q152,407.37,153.88,423Z" style="fill:#263238"></path><path d="M198.85,290.84l-11,72.72h0l-.39,2.46v0l-1,6.55h0l-.08.46-.26,1.76h0L178.8,423H132.12c-4.79-27-9.69-54.68-13.75-77.65h0c-.09-.52-.18-1-.27-1.52-5.47-30.91-9.38-53-9.38-53Z" style="fill:#263238"></path><path d="M210.77,290.77s0,.1-.05.32c-.65,4.24-7.71,49.71-19.44,79.55h0c-.08.25-.17.48-.28.74,0,0-1.65.51-4.63,1.69-1.16.46-2.54,1-4.1,1.7h0l-1.7.76c-3.44,1.54-7.61,3.56-12.37,6.14-.46.24-.91.49-1.36.74,0,0,0,.19,0,.54h0c-.24,3.13-1.46,19.19-3,40H82c6.3-64.93,13.22-132.23,13.22-132.23Z" style="fill:#37474f"></path><path d="M104.36,303.42c-2.33,30.46-4.56,60.92-7,91.34Q96.21,408.88,95,423h-1.2q5.19-59.78,9.87-119.56C103.71,303,104.39,303,104.36,303.42Z" style="fill:#263238"></path><path d="M195.13,369.24c-9.8,3.38-19.25,8.16-28.3,13.18a.32.32,0,0,0,.27.59c9.53-4.1,19.25-8,28.55-12.63A.63.63,0,0,0,195.13,369.24Z" style="fill:#263238"></path><path d="M198.16,303.82c0-.33-.6-.4-.6,0a315.22,315.22,0,0,1-1.6,31.85c-.44,4.91-4.39,32.05-12.91,30.07-1.42-.33-2.15-1.73-2.37-3.88-.27-2.58.7-5.75,1.13-8.32.94-5.69,1.7-11.39,2.19-17.12a155.92,155.92,0,0,0-.35-32.11.28.28,0,0,0-.55,0c0,14.83-.37,29.63-2.59,44.32-1.06,7.06-4.62,17.69,2.76,18.77s12.39-16.69,13.3-21.56C199.14,332.24,199.24,317.57,198.16,303.82Z" style="fill:#263238"></path><path d="M183.28,366.43a46.67,46.67,0,0,0-1.92,5.63,12.91,12.91,0,0,0-.79,4.62c0,.3.43.33.59.13a16.36,16.36,0,0,0,2-4.5c.64-1.74,1.33-3.47,1.93-5.23A1,1,0,0,0,183.28,366.43Z" style="fill:#263238"></path><path d="M144.75,312.7a15.36,15.36,0,0,0-.37-3.52.18.18,0,0,0-.34,0,14,14,0,0,0-.4,3c-.12,1.17-.27,2.33-.4,3.5a49.86,49.86,0,0,1-1.25,7.09,25.12,25.12,0,0,1-6.5,11.69,34,34,0,0,1-11,7.24c-4.58,1.94-9.39,2.66-14.12,4.05-.19.05-.14.34.06.35a40.91,40.91,0,0,0,15.28-3,32.7,32.7,0,0,0,11.47-7.32,25.58,25.58,0,0,0,6.69-12,35.4,35.4,0,0,0,.91-7.11A33.2,33.2,0,0,0,144.75,312.7Z" style="fill:#263238"></path><path d="M168.08,186c2.24,40.34,14.44,79.43,20.29,85.25,9.19,9.15,96,49.7,99,50.57,7.4,2.1,12.89-54.12,8.88-61.31-.92-1.64-72.64-17.8-75.26-20.1-3-2.65-15.94-35.28-30.93-64.49C179.52,155.4,166.83,163.39,168.08,186Z" style="fill:#eb9481"></path><path d="M286.33,321.5c6.76,2.35,38.67,10.36,48.05,10.6s36.43-1,37.35-8.18-7-7.43-7-7.43,11.34-2.34,11.6-9.64-12.11-7.3-12.11-7.3,11.47-3.25,11.21-10.55-12.7-5.22-12.7-5.22,10.62-2.48,7.88-8.4c-3.3-7.13-22.37-.33-32.7-1.38-2.35-.23-47.24-8.19-47.24-8.19Z" style="fill:#eb9481"></path><path d="M363.76,283.63c-14,5-21,4.7-35.33,1.46-.27-.06-.43.34-.15.43,13.71,4.45,22.44,6,35.75-1.23C364.68,283.94,364.42,283.39,363.76,283.63Z" style="fill:#263238"></path><path d="M365.29,299.14c-15,3.88-22.62,3.67-37.84,1.37-.21,0-.29.33-.08.38,14.74,3.5,23.49,4.89,38-1C366,299.66,366,299,365.29,299.14Z" style="fill:#263238"></path><path d="M363.92,316.35c-14.82,2.7-23.15,2.83-37.64-1.29a.28.28,0,0,0-.18.52c14.36,5.64,24.76,5.56,37.86,1.23C364.85,316.51,364.86,316.18,363.92,316.35Z" style="fill:#263238"></path><g style="opacity:0.4"><circle cx="349.02" cy="221.41" r="26.73" transform="translate(74.14 530.08) rotate(-80.7)" style="fill:#FFC727"></circle><circle cx="357.16" cy="258.79" r="26.73" transform="matrix(0.23, -0.97, 0.97, 0.23, 22.45, 546.03)" style="fill:#FFC727"></circle><circle cx="388.91" cy="271.55" r="26.73" style="fill:#FFC727"></circle><circle cx="387.8" cy="236.46" r="26.73" style="fill:#FFC727"></circle><circle cx="332.81" cy="248.49" r="18.2" transform="translate(-69.29 144.44) rotate(-22.24)" style="fill:#FFC727"></circle><circle cx="385.32" cy="207" r="18.2" transform="translate(95.93 534.98) rotate(-76.82)" style="fill:#FFC727"></circle><circle cx="355.1" cy="280.13" r="18.2" transform="translate(-94.08 333.14) rotate(-45)" style="fill:#FFC727"></circle><circle cx="411.28" cy="220.61" r="11.28" transform="translate(-35.54 355.43) rotate(-45)" style="fill:#FFC727"></circle><circle cx="329.77" cy="276" r="11.28" style="fill:#FFC727"></circle><path d="M309,237.59a5.64,5.64,0,1,1-5.64-5.64A5.64,5.64,0,0,1,309,237.59Z" style="fill:#FFC727"></path><path d="M433.9,277a5.64,5.64,0,1,1-5.64-5.64A5.64,5.64,0,0,1,433.9,277Z" style="fill:#FFC727"></path><circle cx="297.1" cy="250.9" r="2.52" style="fill:#FFC727"></circle><path d="M413.8,200.86a2.52,2.52,0,1,1-2.52-2.52A2.52,2.52,0,0,1,413.8,200.86Z" style="fill:#FFC727"></path><circle cx="419.53" cy="247.19" r="18.2" transform="translate(83.2 599.32) rotate(-76.82)" style="fill:#FFC727"></circle></g><path d="M327.22,301.45,320.78,377s39.35,19.16,52.62,18.67S424,382,424,382l-3.44-78.53s-33.95,4.1-48.17,3.85S327.22,301.45,327.22,301.45Z" style="fill:#263238"></path><path d="M421.6,327.21c-8.45,2-37,8.54-48.2,9-10.5.38-37.3-8.89-48-12.78l1.87-21.95s30.95,5.59,45.17,5.84,48.17-3.86,48.17-3.86Z" style="fill:#FFC727"></path><ellipse cx="372.39" cy="293.19" rx="71.94" ry="18.91" style="fill:#263238"></ellipse><ellipse cx="372.39" cy="289" rx="48.17" ry="10.57" style="fill:#a6a6a6"></ellipse><path d="M372.31,220.58c6-10,20.67-32.5,17.52-70.9C387.1,116.5,374.3,104,367.48,103.36s-3.77,29.56,1.49,60.07c4,23.52,2.07,47.86,0,53.31Z" style="fill:#fff"></path><path d="M372.31,220.58a152.33,152.33,0,0,0,7.34-13.38,105.84,105.84,0,0,0,8.88-29c.45-2.5.65-5,.92-7.56.16-1.26.15-2.53.23-3.8s.14-2.53.17-3.8a129.36,129.36,0,0,0-3.07-30.21,72,72,0,0,0-4.94-14.32,46.53,46.53,0,0,0-3.79-6.52,28.78,28.78,0,0,0-5.08-5.48c-.51-.36-1-.74-1.52-1.07s-1.06-.63-1.62-.86a8.3,8.3,0,0,0-1.71-.55,2.12,2.12,0,0,0-1.54,0,4.73,4.73,0,0,0-1.69,2.86,21.44,21.44,0,0,0-.63,3.68,94.93,94.93,0,0,0,.15,15.17c.75,10.14,2.18,20.22,3.73,30.28.76,5,1.72,10,2.27,15.11s.93,10.16,1.07,15.26.06,10.2-.25,15.29c-.15,2.54-.4,5.08-.7,7.61a39.72,39.72,0,0,1-1.53,7.48v0Zm0,0-3.37-3.81,0,0v0a40.43,40.43,0,0,0,1.4-7.48c.26-2.53.47-5.07.58-7.61.24-5.08.22-10.17,0-15.25s-.58-10.15-1.2-15.2-1.59-10-2.4-15.07c-1.64-10.05-3.06-20.15-3.86-30.33a95.76,95.76,0,0,1-.19-15.34,22.17,22.17,0,0,1,.65-3.84,9,9,0,0,1,.72-1.88,3.72,3.72,0,0,1,1.46-1.6l.56-.21a3.81,3.81,0,0,1,.59,0,4.21,4.21,0,0,1,1,.15,9,9,0,0,1,1.91.61,18.18,18.18,0,0,1,1.75.92c.55.36,1.07.76,1.6,1.14a30.49,30.49,0,0,1,5.26,5.69,47.21,47.21,0,0,1,3.85,6.68,72.59,72.59,0,0,1,5,14.52A126.14,126.14,0,0,1,390.6,163c0,1.27-.13,2.55-.2,3.82s-.1,2.55-.27,3.82c-.29,2.54-.51,5.08-1,7.59a100.15,100.15,0,0,1-3.55,14.89,101.68,101.68,0,0,1-5.73,14.17C377.63,211.89,375,216.25,372.31,220.58Z" style="fill:#263238"></path><path d="M371.94,215c3.6-6,13.79-26.58,11.47-56.68-1.53-19.88-10.47-30.91-14.56-31.32s-.72,18.32,1.83,36.69c4.36,31.32.5,45.74-.74,49Z" style="fill:#ff96b7"></path><path d="M368,215.32s2.06-18.37-5.28-49.1c-5.57-23.3-22.2-52.8-34.55-51.19-5.77.76-3.11,21.56,13.88,52.16,12.71,22.88,21.05,41.71,21.66,46.56Z" style="fill:#fff"></path><path d="M368,215.32a102.2,102.2,0,0,0-.06-13.89c-.3-4.62-.77-9.23-1.45-13.81S365,178.47,364,174s-2-9.06-3.33-13.46a127.21,127.21,0,0,0-11-25.38,76.66,76.66,0,0,0-7.85-11.35,37,37,0,0,0-4.87-4.82,15.55,15.55,0,0,0-5.87-3.19,7.34,7.34,0,0,0-3.18-.16,2.89,2.89,0,0,0-1.72,2.25,18.9,18.9,0,0,0-.16,6.72A71.13,71.13,0,0,0,329.28,138a170.13,170.13,0,0,0,11.1,25.38L347,175.6q3.23,6.17,6.29,12.41t5.82,12.63c.91,2.14,1.81,4.27,2.62,6.45a38.6,38.6,0,0,1,2,6.65l0,0Zm0,0-4.3-1.53h0v0a37.72,37.72,0,0,0-2.11-6.59c-.85-2.16-1.78-4.28-2.73-6.39-1.9-4.23-3.94-8.38-6-12.53s-4.21-8.25-6.4-12.33l-6.7-12.18a166.26,166.26,0,0,1-11.26-25.47,72.44,72.44,0,0,1-3.3-13.59,19.93,19.93,0,0,1,.17-7.09,5.49,5.49,0,0,1,.77-1.74,2.88,2.88,0,0,1,1.63-1.21,8.16,8.16,0,0,1,3.69.15,16.58,16.58,0,0,1,6.24,3.4,38.34,38.34,0,0,1,5,5,77.27,77.27,0,0,1,7.91,11.51,123.68,123.68,0,0,1,10.94,25.61c1.34,4.46,2.29,9,3.21,13.55s1.65,9.14,2.27,13.74,1,9.23,1.21,13.86A104,104,0,0,1,368,215.32Z" style="fill:#263238"></path><path d="M366.05,213.69a224,224,0,0,0-9.48-47.47c-5.12-15.81-16.91-36.4-23.66-35.26-4,.68-.87,14.12,10.8,35.41,17.48,31.9,18.94,42.87,19.37,46.24Z" style="fill:#ff96b7"></path><path d="M407.2,256.26c0,.33,0,.66-.07,1a25.25,25.25,0,0,1-1,5.18c-1,3.29-2.42,5-2.89,5s.34-3.65.72-6.18h0a6.52,6.52,0,0,0,.13-2.26,19.65,19.65,0,0,1-.48,2.07c-.87,3.1-3.1,8.77-8,10.41-1,.32,2-3.56,2.39-7-.13.33-1.34,3.1-7,6.08l-.13.07s0,0-.05.11h0v0a59.8,59.8,0,0,0,.45,8.53c.13,1.34.29,2.78.47,4.26a101.87,101.87,0,0,0,2.65,14.24l.15.5a.56.56,0,0,0,0,.12,194,194,0,0,1-20.71,1.17h-1.56c-4.29,0-8.45-.13-12.4-.36h-.06a.54.54,0,0,0,0,.11s0-.08,0-.12l-.53,0H359c-3-.19-5.94-.45-8.7-.76l-.21,0h0l-.7-.07c-2.07-.25-4-.53-5.92-.84.25-1.49.51-3,.79-4.38.51-2.62,1.06-5,1.62-6.84.24-.76.47-1.54.7-2.32.4-1.34.79-2.69,1.13-4,.11-.41.21-.81.31-1.21,1.07-4.36,1.56-8.17.41-9.76-1.82-2.49-7.58-5.8-9.8-9.48a20.61,20.61,0,0,0,.83,2.38c.33.82,1.73,2.73,1,2.74-1.34,0-4.67-3.61-6.12-9.39a11,11,0,0,0,.55,3c.4,1.33.95,2.24.28,2.07s-3.63-3.2-3.54-7.67A8.68,8.68,0,0,1,332,251c.17-.77.44-1.72.78-2.82s.68-2.07,1.1-3.26h0c3.84-10.86,12.06-29,18-32.57,2.44-1.47,6.33-2.51,10.83-3l.57-.06c1-.1,2.13-.18,3.23-.23.87,0,1.74-.05,2.63-.05h0c1.21,0,2.43,0,3.65.11l1.05.08h0c1.82.14,3.64.37,5.41.68,1.17.21,2.32.45,3.44.73h0a29.84,29.84,0,0,1,11,4.92c4.15,3.23,12.57,24.9,13.51,37.44A25.06,25.06,0,0,1,407.2,256.26Z" style="fill:#fff"></path><path d="M407.2,256.26a26,26,0,0,1-.63,4.57,19.25,19.25,0,0,1-1.51,4.36,7.94,7.94,0,0,1-1.28,1.92,1.09,1.09,0,0,1-.49.31c-.12,0-.18-.11-.19-.2a2.58,2.58,0,0,1,0-.29,11.18,11.18,0,0,1,.11-1.15c.22-1.52.53-3,.76-4.55h0c.06-.37.11-.74.15-1.12a3.5,3.5,0,0,0,0-1.12h.06c-.23.95-.39,1.92-.7,2.85a24.55,24.55,0,0,1-1.05,2.74,15.36,15.36,0,0,1-3.31,4.82,9.84,9.84,0,0,1-2.41,1.68,5.15,5.15,0,0,1-.68.29l-.34.14a.29.29,0,0,1-.23,0c-.11-.06-.08-.17-.07-.23a7.84,7.84,0,0,1,.58-1.36,16.7,16.7,0,0,0,2-5.46l.14,0a7.59,7.59,0,0,1-1.37,2,15.28,15.28,0,0,1-1.77,1.64c-.62.5-1.29.95-2,1.39s-1.38.82-2.09,1.2h-.05s.07,0,.07,0h0v.14h-.11l.11-.11v0a26.94,26.94,0,0,0,.07,3.47q.1,1.74.27,3.48c.22,2.32.49,4.63.79,6.94s.68,4.61,1.12,6.9a63.48,63.48,0,0,0,1.61,6.73l.09.31-.27,0c-5.77.68-11.57,1.06-17.37,1.21l-4.35.07c-1.45,0-2.9-.06-4.35-.09l-8.69-.21.35-.22s0,0,0,0l-.7.69-.07-.78v-.12l.37.39c-.76,0-1.62-.12-2.4-.18l-2.42-.2c-1.61-.14-3.21-.26-4.83-.42h0c-1.12-.1-2.22-.29-3.33-.43l-3.32-.47-.44-.06.08-.44c.63-3.54,1.22-7.08,2.19-10.57.52-1.73,1-3.42,1.5-5.15s1-3.44,1.31-5.18a22.06,22.06,0,0,0,.55-5.2,3.67,3.67,0,0,0-.7-2.24,15.87,15.87,0,0,0-1.85-1.81c-2.67-2.31-5.77-4.32-7.83-7.52l.9-.35.69,2a11.61,11.61,0,0,0,.94,1.86c.09.17.17.34.25.52a1.55,1.55,0,0,1,.17.78.66.66,0,0,1-.06.2.73.73,0,0,1-.18.23.7.7,0,0,1-.42.14l-.4-.06a3.3,3.3,0,0,1-.6-.27,7.1,7.1,0,0,1-1.72-1.54,16.88,16.88,0,0,1-2.37-3.74,22.53,22.53,0,0,1-1.48-4.15l.91-.11a11.07,11.07,0,0,0,.45,2.62c.12.44.26.85.42,1.29a5.55,5.55,0,0,1,.23.72,1.06,1.06,0,0,1,0,.27.61.61,0,0,1-.18.49.68.68,0,0,1-.3.16h-.22a1,1,0,0,1-.28-.07,2.49,2.49,0,0,1-.71-.49c-.19-.17-.36-.36-.53-.54a9.88,9.88,0,0,1-.86-1.18,10.7,10.7,0,0,1-1.21-2.64,10.23,10.23,0,0,1-.44-2.87,9,9,0,0,1,.49-2.84c.47-1.83,1.09-3.59,1.69-5.36l0,.14h0v-.07l0-.07c1.71-4.73,3.65-9.35,5.78-13.9a98.33,98.33,0,0,1,7.29-13.17,21.07,21.07,0,0,1,5.15-5.55,22.74,22.74,0,0,1,7.15-2.46,57.22,57.22,0,0,1,15-.67h0l4.46.58a16.51,16.51,0,0,1,2.21.4l2.2.47h0a37.15,37.15,0,0,1,6.57,2.32,23.94,23.94,0,0,1,3.05,1.7,16,16,0,0,1,1.42,1,8.49,8.49,0,0,1,1.17,1.3,36.6,36.6,0,0,1,3.45,6c1,2.1,1.89,4.24,2.71,6.41a116,116,0,0,1,4.23,13.25c.55,2.26,1.07,4.52,1.41,6.82A34.25,34.25,0,0,1,407.2,256.26Zm0,0a33.57,33.57,0,0,0-.52-6.93c-.34-2.29-.87-4.55-1.42-6.8A118.07,118.07,0,0,0,401,229.29c-.82-2.16-1.75-4.29-2.73-6.39a36.85,36.85,0,0,0-3.45-6,8.26,8.26,0,0,0-1.16-1.27,12.89,12.89,0,0,0-1.41-1,23.56,23.56,0,0,0-3-1.66,35.94,35.94,0,0,0-6.55-2.25h0l-2.19-.46a18.37,18.37,0,0,0-2.2-.37l-4.44-.54h0a56.75,56.75,0,0,0-14.9.8,22.6,22.6,0,0,0-7,2.45A20.44,20.44,0,0,0,347,218a95.7,95.7,0,0,0-7.13,13.14c-2.08,4.54-4,9.17-5.63,13.87l0-.14h0V245l0,.07c-.59,1.76-1.21,3.51-1.65,5.29a8.51,8.51,0,0,0-.46,2.62,9.75,9.75,0,0,0,.41,2.63,9.62,9.62,0,0,0,1.12,2.41,9.23,9.23,0,0,0,.79,1.07c.15.16.29.32.45.46a2.28,2.28,0,0,0,.42.31l.05,0h0a.28.28,0,0,0-.15.08c-.12.13-.08.19-.09.17a.54.54,0,0,1,0-.08,5.36,5.36,0,0,0-.2-.61c-.16-.43-.32-.89-.45-1.35a11.73,11.73,0,0,1-.49-2.87l-.12-4.18,1,4.07a20.91,20.91,0,0,0,1.43,4,16.06,16.06,0,0,0,2.24,3.52,6.33,6.33,0,0,0,1.48,1.33,3.17,3.17,0,0,0,.38.18l.14,0c-.07,0-.08,0-.18.06a.31.31,0,0,0-.09.12.19.19,0,0,0,0,.07c0,.08,0-.14-.1-.25s-.14-.3-.22-.45a11.81,11.81,0,0,1-1-2l-.74-2.11-1.41-4,2.31,3.7a18.15,18.15,0,0,0,3.51,3.84c1.33,1.16,2.74,2.25,4.12,3.43a15.84,15.84,0,0,1,2,2,3.44,3.44,0,0,1,.69,1.36,6.42,6.42,0,0,1,.21,1.42,22.38,22.38,0,0,1-.59,5.45c-.36,1.78-.83,3.51-1.33,5.24s-1,3.46-1.52,5.15c-1,3.41-1.57,6.95-2.21,10.46l-.36-.5,3.29.47c1.1.15,2.2.35,3.3.45h0c.78.09,1.59.15,2.38.22l2.39.22,2.4.22c.81.08,1.56.16,2.4.2l.34,0,0,.37v.12l-.77-.09c0-.07.06-.13.08-.19l.11-.22h.24l8.69.29c1.45,0,2.9.12,4.35.13l4.34,0c5.78-.09,11.57-.42,17.32-1l-.18.33a60.81,60.81,0,0,1-1.59-6.87q-.63-3.45-1.06-6.92c-.28-2.32-.54-4.64-.74-7-.09-1.16-.18-2.32-.24-3.49a27.52,27.52,0,0,1,0-3.52v-.11h.12l-.11.09v-.07s0,0,0-.06a.13.13,0,0,1,.12-.07h-.05c.7-.37,1.4-.76,2.08-1.17a22.18,22.18,0,0,0,2-1.37,15.68,15.68,0,0,0,1.76-1.6,7.2,7.2,0,0,0,1.35-1.94l.21-.47-.07.51a16.93,16.93,0,0,1-2,5.5,7.27,7.27,0,0,0-.58,1.32c-.08.23.29,0,.48-.05a5.65,5.65,0,0,0,.67-.29A9.56,9.56,0,0,0,399,269.3a15.41,15.41,0,0,0,3.31-4.78,26.5,26.5,0,0,0,1.05-2.73c.31-.93.48-1.89.72-2.84l0-.13,0,.13a3.42,3.42,0,0,1,0,1.15c0,.37-.09.75-.15,1.12h0c-.23,1.53-.55,3-.78,4.56a8.77,8.77,0,0,0-.1,1.14,1.42,1.42,0,0,0,0,.29c0,.08.06.19.15.16a1,1,0,0,0,.46-.3,7.7,7.7,0,0,0,1.28-1.91,19.15,19.15,0,0,0,1.53-4.34A27,27,0,0,0,407.2,256.26Z" style="fill:#263238"></path><path d="M359.72,299.2l-.53,0H359c-3-.19-5.94-.45-8.7-.76l-.21,0h0c-1.29-1.12-3.51-2.23-5-4a6.36,6.36,0,0,1-.84-1.25,5.85,5.85,0,0,1-.48-1.27c-.43-1.64.3-4.82,1.28-7.64a28.94,28.94,0,0,1,1.75-4.13c.54-1,1-1.56,1.21-1.33a.36.36,0,0,1,.05.09,7.36,7.36,0,0,0,.51,1,18.05,18.05,0,0,0,2.18,2.88c.17.21.36.41.55.62a38.9,38.9,0,0,1,5.22,6.67,24.61,24.61,0,0,1,3,8.06.78.78,0,0,1,0,.14C359.65,298.53,359.69,298.88,359.72,299.2Z" style="fill:#fff"></path><path d="M359.72,299.2c-1.61,0-3.21-.15-4.82-.23s-3.22-.17-4.83-.31H350l-.09-.08c-1.5-1.18-3.33-2.09-4.75-3.59a6.28,6.28,0,0,1-1.85-5.76,29.34,29.34,0,0,1,1.5-5.81,26.69,26.69,0,0,1,1.15-2.78,14.42,14.42,0,0,1,.72-1.34,6.34,6.34,0,0,1,.47-.67,2.11,2.11,0,0,1,.4-.35.7.7,0,0,1,.56-.07.68.68,0,0,1,.28.18l.11.19h0v0a17.05,17.05,0,0,0,3.21,4.5,44.75,44.75,0,0,1,3.65,4.45,26.21,26.21,0,0,1,2.77,5.06,21.81,21.81,0,0,1,1.49,5.55h0Zm0,0-.16-1h0a23.12,23.12,0,0,0-1.84-5.36,27.21,27.21,0,0,0-2.9-4.84c-1.14-1.5-2.45-2.86-3.73-4.28a18.07,18.07,0,0,1-3.45-4.72l0,0,0,0a.48.48,0,0,0,.14.09.24.24,0,0,0,.2,0,1.13,1.13,0,0,0-.14.15,4.66,4.66,0,0,0-.38.54c-.23.41-.45.84-.66,1.27-.4.88-.76,1.78-1.1,2.69a28.73,28.73,0,0,0-1.53,5.6,5.94,5.94,0,0,0,.11,2.73,6.71,6.71,0,0,0,1.43,2.36c1.26,1.43,3,2.38,4.54,3.7l-.19-.07h0l4.78.55C356.52,298.81,358.12,299,359.72,299.2Z" style="fill:#263238"></path><path d="M350.32,298.4l-.21,0h0l-.7-.07a7.55,7.55,0,0,0-.71-.51c-.35-.23-.82-.47-1.14-.73a.19.19,0,0,1-.09.05,3.73,3.73,0,0,1-2.75-1.27s0-.12.08-.08a6.26,6.26,0,0,0,1.29.72,8.12,8.12,0,0,0,1.15.3,11.58,11.58,0,0,1-2.12-2.45l-.19-.29a.1.1,0,0,1,.17-.11,13.11,13.11,0,0,0,3.87,3.46A10.66,10.66,0,0,1,350.32,298.4Z" style="fill:#263238"></path><path d="M359.84,299.21h-.06a.54.54,0,0,0,0,.11s0-.08,0-.12l-.53,0c0-.07,0-.14,0-.21s0-.07,0-.1a22.57,22.57,0,0,0-1.84-6.69c-1.48-3-4-6.09-6.08-8.85l-.47-.63-.34-.46s0-.05,0,0c.33.36.67.72,1,1.09,1.1,1.24,2.18,2.51,3.21,3.8a23.62,23.62,0,0,1,3.44,5.32,25.46,25.46,0,0,1,1.55,5.47.77.77,0,0,1,0,.15,10.12,10.12,0,0,1,.14,1.07S359.84,299.17,359.84,299.21Z" style="fill:#263238"></path><path d="M384.08,294.19a7.26,7.26,0,0,1-4.35,3.46c-1.78.57-3.61.62-4.94,1a7.27,7.27,0,0,0-1.77.88h-.78c-4.29,0-8.45-.13-12.4-.36h-.06a.54.54,0,0,0,0,.11s0-.08,0-.12l-.53,0h-.1a1.67,1.67,0,0,1,.08-.2,6,6,0,0,1,.43-.78,1.19,1.19,0,0,1,.09-.15l.37-.5c2.16-2.61,5.39-9.18,10.33-12.48a13.69,13.69,0,0,1,1.58-.9C380.4,280.11,387.54,288.17,384.08,294.19Z" style="fill:#fff"></path><path d="M384.08,294.19a7.21,7.21,0,0,1-2.08,2.38,8.77,8.77,0,0,1-2.9,1.32c-1,.27-2.09.4-3.13.61a8.34,8.34,0,0,0-1.5.43,8.66,8.66,0,0,0-1.36.77l0,0H373c-1.1,0-2.21,0-3.31,0l-3.31,0-6.62-.06.39-.24s0,0,0,0l-.79.58-.06-.68v-.12l.41.43c-.2,0-.43,0-.61,0l-.62-.06.2-.5a1.93,1.93,0,0,1,.13-.32l.14-.26.28-.53,0,.08.12-.21v0h0c1-1.33,1.89-2.66,2.8-4.07S364,291,365,289.64a26,26,0,0,1,3.46-3.66,14.39,14.39,0,0,1,2.08-1.46l1.12-.6c.38-.19.79-.31,1.18-.47a10.17,10.17,0,0,1,5-.49,8.83,8.83,0,0,1,4.46,2.2,8.1,8.1,0,0,1,2.5,4.23A6.6,6.6,0,0,1,384.08,294.19Zm0,0a6.6,6.6,0,0,0,.68-4.78,7.77,7.77,0,0,0-2.55-4.11,8.6,8.6,0,0,0-4.39-1.93,9.45,9.45,0,0,0-4.73.68c-3,1.2-5.35,3.59-7.33,6.16s-3.62,5.49-5.7,8.08l0,0-.06.09,0,.08-.25.44-.13.22c-.05.08-.05.13-.09.19l-.42-.56.65,0,.38,0,0,.41v.12l-.85-.11c0-.06.05-.13.08-.19l.12-.25h.27c1.13,0,2.21.1,3.32.15l3.3.17,3.31.17c1.1,0,2.21.13,3.31.14l-.08,0a8.11,8.11,0,0,1,1.44-.73,7.89,7.89,0,0,1,1.56-.38c1.05-.17,2.11-.3,3.13-.55a8.51,8.51,0,0,0,2.9-1.25A7.18,7.18,0,0,0,384.08,294.19Z" style="fill:#263238"></path><path d="M370.39,285.05a.13.13,0,0,1-.06.15c-3.39,2.14-5.33,6.05-7.56,9.18a34.68,34.68,0,0,0-2.94,4.72.54.54,0,0,1-.05.11.54.54,0,0,0,0,.11s0-.08,0-.12l-.53,0H359c0-.1.09-.2.14-.3.13-.28.27-.55.42-.82,0-.05.06-.1.09-.16a23.15,23.15,0,0,1,1.56-2.34c1.54-2,4.36-7.79,9-10.56A.15.15,0,0,1,370.39,285.05Z" style="fill:#263238"></path><path d="M382.41,296.79a7.92,7.92,0,0,1-4.06,1.76l.35.08a12.49,12.49,0,0,0,3,.23s.06.06,0,.07a10.25,10.25,0,0,1-4.39-.24l-.78.08a7.86,7.86,0,0,0-2.74.79h-1.56a8.6,8.6,0,0,1,3.77-1.46c1.32-.16,2.53-.21,3.72-.46a8.53,8.53,0,0,0,2.64-.93S382.46,296.75,382.41,296.79Z" style="fill:#263238"></path><path d="M380.83,243.33c4.13.69,5.57,4.87,4.77,8.28-.75,3.23-3.6,4.9-6.92,4.41-3-.46-5.6-4-4.47-8.17A5.82,5.82,0,0,1,380.83,243.33Z" style="fill:#263238"></path><path d="M346.92,239.47c3,1.11,3.71,5.41,2.84,8.72-.81,3.12-3,4.48-5.44,3.65-2.19-.77-3.79-4.55-2.62-8.58C342.78,239.53,345.28,238.85,346.92,239.47Z" style="fill:#263238"></path><path d="M376.33,233.83c1.2-1.18,4.14-.73,5.51-.11a9.8,9.8,0,0,1,4.69,4s0,0,0,0a13,13,0,0,0-4.69-3.34c-2.42-.93-5-.39-5,.27,0,1.28,6.16,1.17,8.58,4,.1.11,0,.07-.11,0-2.48-2-5.09-1.72-7.88-2.7C376.58,235.57,375.38,234.76,376.33,233.83Z" style="fill:#c7c7c7"></path><path d="M342.83,235.2a7.73,7.73,0,0,1,2.46-1.37c1.56-.48,4.32,0,4.17-1.1-.11-.77-2-.79-3-.62a8.23,8.23,0,0,0-3.47,1.81s-.07,0,0,0a6.38,6.38,0,0,1,3.41-2.16c.95-.21,3.51-.22,3.8.85s-.94,1.65-3,1.54a6.51,6.51,0,0,0-4.28,1.18C342.78,235.35,342.73,235.28,342.83,235.2Z" style="fill:#c7c7c7"></path><path d="M356.12,256.11c.3.71,1.11,2.85,1.54,2.88s1-3.3.67-8.57c0-.16.22-.17.25,0,.3,2.08,1,9,2.91,8.87,1.14,0,1.79-1.88,2.09-3.1,0,0,.06,0,.06,0-.1,1.27-.88,3.77-2.26,3.83s-2.22-2.54-2.46-3.73a5.31,5.31,0,0,1-.63,3.08c-1.11,1.46-2.14-2.59-2.28-3.21C356,256.07,356.09,256,356.12,256.11Z" style="fill:#263238"></path><path d="M358.66,252.39c.81-.07,4.33-1.78,4.16-2-.36-.61-7.11-.89-7.51-.46S358.29,252.42,358.66,252.39Z" style="fill:#ff96b7"></path><path d="M357.06,270.78c.92.67,3.57,2.22,4,1.81s-1-2.1-1-2.17,0-.28.14-.21c2.26,1.24,4.49,2.08,7.21.94.06,0,.12.07.07.11-1.61,1.46-4.45,1.27-6.34.08.53.73.92,1.55.51,1.87-.8.63-3.8-1.26-4.68-2.36C357,270.8,357,270.74,357.06,270.78Z" style="fill:#c7c7c7"></path><path d="M339.13,247.36c-1.68-.71-3.35-1.44-5-2.13-.85-.33-1.68-.69-2.53-1a9.12,9.12,0,0,0-1.28-.36c-.42-.08-.88-.11-1.33-.15-3.62-.32-7.26-.55-10.89-1,1.83,0,3.65.06,5.47.14s3.64.2,5.46.34a11.06,11.06,0,0,1,1.38.17,8.34,8.34,0,0,1,1.34.41c.86.32,1.71.67,2.53,1.06Q336.74,246,339.13,247.36Z" style="fill:#263238"></path><path d="M339.64,249.28q-3.56-.39-7.09-.87c-1.18-.15-2.35-.33-3.53-.5l-1.76-.25c-.59-.07-1.18-.1-1.77-.13-2.37-.15-4.75-.19-7.12-.27s-4.76-.15-7.14-.25q3.57-.13,7.14-.14t7.15.16c.6,0,1.2.08,1.79.16l1.77.27c1.17.19,2.35.36,3.53.57Q336.14,248.61,339.64,249.28Z" style="fill:#263238"></path><path d="M317.77,252.91c1.64-.42,3.3-.77,5-1.11s3.34-.62,5-.87a36.39,36.39,0,0,1,5.11-.13c1.7.06,3.39.15,5.08.32l-5.08.07a42.12,42.12,0,0,0-5,.24c-1.68.2-3.35.5-5,.75S319.45,252.69,317.77,252.91Z" style="fill:#263238"></path><path d="M390.37,251.82c1.8-.34,3.6-.59,5.42-.79.91-.1,1.82-.16,2.74-.19a9.43,9.43,0,0,1,1.4,0c.48.06.91.18,1.36.28,1.77.45,3.53.92,5.28,1.43s3.5,1,5.23,1.62c-3.57-.76-7.09-1.72-10.63-2.57-.43-.1-.88-.23-1.31-.29a9.5,9.5,0,0,0-1.32-.06c-.9,0-1.81.08-2.72.13C394,251.53,392.19,251.69,390.37,251.82Z" style="fill:#263238"></path><path d="M389.28,253.48c2.35.33,4.71.68,7.06,1.07,1.18.18,2.35.39,3.53.59l1.76.3c.59.12,1.17.28,1.74.43,2.3.66,4.57,1.38,6.82,2.14s4.5,1.57,6.73,2.42c-2.29-.67-4.57-1.36-6.84-2.05s-4.55-1.41-6.84-2c-.57-.16-1.14-.32-1.71-.44l-1.76-.32c-1.16-.22-2.33-.43-3.5-.67Q392.78,254.25,389.28,253.48Z" style="fill:#263238"></path><path d="M408.83,263.92c-1.52-.74-3-1.52-4.53-2.3s-3-1.59-4.51-2.32a41.65,41.65,0,0,0-4.7-1.84l-4.79-1.7c1.65.39,3.29.84,4.91,1.33a38.39,38.39,0,0,1,4.8,1.76c1.52.78,3,1.59,4.47,2.43S407.41,263,408.83,263.92Z" style="fill:#263238"></path><path d="M287.93,260.26s18.4-3.1,26.78-2.68,39,13.47,36.59,20.25c-3.16,8.76-22.34,4.71-31.47,1.5,0,0-7.29,20.26-21.68,20.33S287.93,260.26,287.93,260.26Z" style="fill:#eb9481"></path><path d="M349.64,280c-8.64,5.9-20.36.91-29.45-1.54a.86.86,0,0,0-1.12.86c-3.62,8.29-11.14,18.93-20.5,20.79a.22.22,0,0,0,.05.44c10.31-.64,18.55-10.49,21.93-19.82,9.29,2.66,21.26,7.15,29.15-.65C349.75,280,349.7,279.92,349.64,280Z" style="fill:#263238"></path><path d="M285.51,255.28l-13,62.28s-76-33.51-86.7-46.76-16.46-58.64-19.24-84,14.25-32.19,26.18-8.09,27.61,58.93,30,60.81S285.51,255.28,285.51,255.28Z" style="fill:#ebebeb"></path><path d="M275.06,252.86l-17.21,62.06s-61.34-30.87-72.05-44.12-16.46-58.64-19.24-84,14.25-32.19,26.18-8.09,27.61,58.93,30,60.81S275.06,252.86,275.06,252.86Z" style="fill:#263238"></path><path d="M252.6,300.53a3.11,3.11,0,1,1-2.89-3.33A3.11,3.11,0,0,1,252.6,300.53Z" style="fill:#37474f"></path><path d="M239.6,295.44a3.11,3.11,0,1,1-2.88-3.33A3.11,3.11,0,0,1,239.6,295.44Z" style="fill:#37474f"></path><path d="M226.15,298c-16.76-9.41-35-20.53-40.35-27.2-10.7-13.26-16.46-58.64-19.24-84-2.28-20.7,8.71-29.08,19.32-18.23Z" style="fill:#37474f"></path><path d="M210.72,291.09,95.2,290.77s9.17-70.6,47.82-124.6c9.32-13,28.94-6.81,36.4,0C198,183.08,211.05,290.61,210.72,291.09Z" style="fill:#ebebeb"></path><path d="M149.45,160l1.83,29.63L188,262.5s2-66.88,1.56-70.72-11.45-28.11-11.45-28.11,10.71,11.8,14.86,26.1,16.23,75.66,17.76,82.81,3.4,45.37,3.4,45.37L189.6,293l-19.92,25.92L113.82,299S102.73,366,102.06,370.4,91.51,423,91.51,423H55.67S86.18,306.28,86.36,304.31,112.1,215,124.23,192.55C137.65,167.69,149.45,160,149.45,160Z" style="fill:#263238"></path><path d="M182.05,288.18a3.11,3.11,0,1,1,1.81-4A3.11,3.11,0,0,1,182.05,288.18Z" style="fill:#37474f"></path><path d="M181.22,274.25a3.11,3.11,0,1,1,1.82-4A3.11,3.11,0,0,1,181.22,274.25Z" style="fill:#37474f"></path><path d="M189.6,293c-.33-2.53-.56-5.06-.77-7.6s-.36-5.08-.51-7.62-.23-5.08-.27-7.63l-.06-3.82c0-1.28,0-2.55,0-3.83.18,1.27.29,2.54.44,3.8l.33,3.81c.23,2.54.37,5.08.51,7.62s.24,5.08.28,7.63S189.68,290.45,189.6,293Z" style="fill:#37474f"></path><path d="M177.32,204.2a9,9,0,0,0-1.8-5.44A7.26,7.26,0,0,0,173,187.85c-.62-.3-.61-.22-.3-.84a6.18,6.18,0,0,0,.6-1.67,5.71,5.71,0,0,0-.45-3.31,4.76,4.76,0,0,0-5.32-2.62.28.28,0,0,0,0,.55c2.4.6,4.61,2.56,3.67,5.28-.43,1.23-1.66,2.62-.43,3.82.56.55,1.44.68,2.08,1.11a5.54,5.54,0,0,1,1.81,2.09,5.47,5.47,0,0,1-1,6,.89.89,0,0,0,0,1.07,7.8,7.8,0,0,1,2.09,5.62c0,1.94-.51,3.9-.4,5.82,0,.35.48.32.62.07A14,14,0,0,0,177.32,204.2Z" style="fill:#263238"></path><path d="M182.52,206a9.07,9.07,0,0,0-.86-5.67,7.26,7.26,0,0,0-.63-11.16c-.56-.41-.56-.32-.15-.89a6,6,0,0,0,.86-1.55,5.57,5.57,0,0,0,.11-3.33,4.76,4.76,0,0,0-4.8-3.48.28.28,0,0,0-.09.55c2.27,1,4.12,3.3,2.74,5.82-.62,1.14-2.07,2.31-1.06,3.7.46.62,1.31.91,1.86,1.44a5.27,5.27,0,0,1-.51,8.09.88.88,0,0,0-.17,1.06,7.77,7.77,0,0,1,1.11,5.89c-.3,1.92-1.14,3.76-1.36,5.67,0,.35.42.4.6.18A14.2,14.2,0,0,0,182.52,206Z" style="fill:#263238"></path><path d="M171,205.64a9,9,0,0,0-2-5.36,7.26,7.26,0,0,0-2.91-10.8c-.63-.28-.62-.2-.33-.83a6,6,0,0,0,.52-1.7,5.49,5.49,0,0,0-.58-3.28,4.74,4.74,0,0,0-5.41-2.41.28.28,0,0,0,0,.55c2.42.5,4.71,2.38,3.88,5.13-.38,1.25-1.56,2.68-.28,3.84a14.27,14.27,0,0,0,2.12,1,5.29,5.29,0,0,1,1.17,8,.87.87,0,0,0,.05,1.07,7.75,7.75,0,0,1,2.3,5.54c.1,1.93-.35,3.91-.17,5.82,0,.36.5.31.63.05A14,14,0,0,0,171,205.64Z" style="fill:#263238"></path><path d="M146.89,170.65A46.4,46.4,0,0,0,162,189.5a25.39,25.39,0,0,0,11,4.88,10.83,10.83,0,0,0,6.27-.63,12.24,12.24,0,0,0,4.51-4.22,23,23,0,0,0,3-6.36,54.74,54.74,0,0,0,1.73-7.71c0-.1.16-.07.15,0-.36,2.47-.52,5-1.07,7.4a24.91,24.91,0,0,1-2.2,6.24,14.83,14.83,0,0,1-4,4.88,9.71,9.71,0,0,1-6.22,1.88,23,23,0,0,1-12.1-4.12,40.7,40.7,0,0,1-9.35-8.52,43.14,43.14,0,0,1-7-12.52C146.59,170.57,146.82,170.5,146.89,170.65Z" style="fill:#263238"></path><path d="M174.56,185.79c-7.89,1.32-20.43-11.42-25.06-21.38-.32-.68,1.15-7.57,2.54-16,.82-5.13,1.61-10.86,2-16.14.07-1.09,32.6,10.22,32.6,10.22s-4,10.86-4.54,20.07a11.1,11.1,0,0,0,.09,2.18c0,.1,0,.22,0,.36C182.57,169.25,182.18,184.5,174.56,185.79Z" style="fill:#eb9481"></path><path d="M178.76,165.05a19.6,19.6,0,0,0,3.41,0c0-.14,0-.26,0-.36a10.4,10.4,0,0,1-.08-2.18c.55-9.21,4.52-20.07,4.52-20.07s-26.4-9.18-31.68-10.21C155.53,138.44,159.25,163.33,178.76,165.05Z" style="fill:#263238"></path><path d="M193.73,80.36s11.13,4.6,13.19,15.89-.51,23.16-1.48,23.74S193.73,80.36,193.73,80.36Z" style="fill:#263238"></path><path d="M148.87,96.68c-3.2,11.88,4.14,45.66,12.76,53,12.5,10.58,32.39,11,41.24-3.92,8.57-14.44-1.77-58.28-11.35-64.86C177.42,71.18,153.59,79.13,148.87,96.68Z" style="fill:#eb9481"></path><path d="M181.61,116.61c0-.09-.15.14-.13.23.56,2.27.81,5-1.09,6.14-.06,0,0,.15.05.13C182.88,122.22,182.5,118.66,181.61,116.61Z" style="fill:#263238"></path><path d="M179.08,114.66c-3.73.5-2.45,7.91,1,7.44S182.2,114.24,179.08,114.66Z" style="fill:#263238"></path><path d="M195.63,113.88c0-.09.2.08.22.17.32,2.31,1.07,4.9,3.28,5.3.07,0,.08.13,0,.13C196.54,119.56,195.57,116.12,195.63,113.88Z" style="fill:#263238"></path><path d="M197.27,111.13c3.64-.91,5.2,6.44,1.83,7.29S194.22,111.9,197.27,111.13Z" style="fill:#263238"></path><path d="M175.17,112.78c1.05-.1,2-.37,3-.57a5,5,0,0,0,3-1.18,1.59,1.59,0,0,0,0-1.94c-1-1.16-2.46-1.22-3.87-1a5.76,5.76,0,0,0-3.67,2A1.69,1.69,0,0,0,175.17,112.78Z" style="fill:#263238"></path><path d="M199.5,104.07a28.64,28.64,0,0,1-3.08-.26,5,5,0,0,1-3.09-.86,1.59,1.59,0,0,1-.23-1.92c.84-1.25,2.31-1.48,3.74-1.4a5.79,5.79,0,0,1,3.86,1.58A1.7,1.7,0,0,1,199.5,104.07Z" style="fill:#263238"></path><path d="M183.19,137.49c.65.44,1.32,1.08,2.17,1a6.09,6.09,0,0,0,2.36-1c.07,0,.16,0,.12.1a3.14,3.14,0,0,1-2.7,1.75,2.5,2.5,0,0,1-2.15-1.72C182.93,137.5,183.1,137.42,183.19,137.49Z" style="fill:#263238"></path><path d="M184.43,130.2a7.9,7.9,0,0,0,5.81,2.58,10.12,10.12,0,0,0,2.83-.35,3,3,0,0,0,.53-.16c.16-.05.31-.09.49-.16a.58.58,0,0,0,.37-.59v0a.65.65,0,0,0-.06-.23v0l0-.2c-.25-1.77-.89-4.43-.89-4.43.7.21,4.25,1.13,4,.21-1.77-7.56-3.74-16-7.09-23.12a.22.22,0,0,0-.41.13c1.41,7.34,4.1,14.37,5.64,21.72a13.75,13.75,0,0,0-3.88-.49c-.24.12,1.31,5.12,1.36,5.92a.23.23,0,0,1,0,.09c-2.9.89-5.29.38-8.52-1.12C184.41,129.86,184.26,130,184.43,130.2Z" style="fill:#263238"></path><path d="M191.87,131.71a9.39,9.39,0,0,1-3.21,3.51,4.28,4.28,0,0,1-2.51.6c-1.91-.17-2.25-1.84-2.16-3.34a10.2,10.2,0,0,1,.44-2.34A12.21,12.21,0,0,0,191.87,131.71Z" style="fill:#263238"></path><path d="M188.66,135.22a4.28,4.28,0,0,1-2.51.6c-1.91-.17-2.25-1.84-2.16-3.34C186,132.34,188.16,133.34,188.66,135.22Z" style="fill:#ff96b7"></path><path d="M154,129.06c4.14.1,5.32-12.59,5.33-17.34,0-4.19-2.17-16.87-2.22-17.76s19.67,6.26,28.5.77,12.84-15.91,11.85-20-15.78-11-26.25-8.59-20.79,19.38-20.79,19.38,3.17-7,2.87-7.41-6.21,4.11-6.11,9.2c0,0-.35-6.33-.89-6.3s-4.29,6.58-2,10.13c0,0-4.54,6.87-3.51,12.72S149.16,128.93,154,129.06Z" style="fill:#263238"></path><path d="M191.9,90.81c-2.55,2.16-5.07,4.46-8.18,5.79a22.47,22.47,0,0,1-10.82,1.23A33.87,33.87,0,0,1,162.31,95c-3-1.31-5.76-3.1-8.82-4.15-.76-.26-1.25.87-.69,1.35a35.86,35.86,0,0,0,21,8c7.61.27,13.75-3.13,18.12-9.28C192,90.84,191.94,90.78,191.9,90.81Z" style="fill:#263238"></path><path d="M158.24,124s-8.27-10.57-13.1-7.57,1.78,18.61,7.75,20.48a6,6,0,0,0,7.8-3.62Z" style="fill:#eb9481"></path><path d="M147.15,120.84a.08.08,0,0,0,0,.16c4.19,1.44,6.56,5.13,8.28,9-1.3-1.45-3-2.19-5-.63-.11.08,0,.24.12.21a3.68,3.68,0,0,1,4.1,1.06,18.57,18.57,0,0,1,2.1,3.15c.21.36.86.13.7-.29l0-.09C157.24,128.17,152.79,121.07,147.15,120.84Z" style="fill:#263238"></path><path d="M182.09,162.06l-6.46,19.73L150.14,159l-6.26,8.25s25.91,37.12,25.94,35.36l6.84-17.09,12.19,10.78L186,167.44Z" style="fill:#ebebeb"></path><path d="M188.26,182c-.62-4.75-1.12-9.56-2-14.28,0-.16-.3-.22-.33,0-.65,4.67,1.84,22.84,2.11,27.21l0,0c-.51-.47-11.27-9.45-11.36-9.29-1.55,2.74-6.57,15.19-6.89,16.32-4.1-5.9-19.73-27.29-24.49-32.8-.14-.16-.39,0-.27.18,3.69,6.27,24.4,35.09,24.69,35,.2.14,6.45-15.2,7.13-18.07,1.85,2,12.79,12.21,12.77,11.49A147.35,147.35,0,0,0,188.26,182Z" style="fill:#263238"></path><path d="M179.13,185.73s6.75-17.91,9.39-12,.69,10.16.69,10.16,4.12,6.34,2.21,8.22-11-.74-11.58-2.44A20.07,20.07,0,0,1,179.13,185.73Z" style="fill:#FFC727"></path><path d="M179.13,185.72a20.4,20.4,0,0,0,.7,4c.28.82,2.53,1.86,5,2.5a27.12,27.12,0,0,0,.33-5.18c-.15-2.12-2.92-4.63-4.22-5.71C179.87,183.75,179.13,185.72,179.13,185.72Z" style="fill:#050400;opacity:0.1"></path><path d="M176.06,186.37s-17.21-14.75-18.29-7.71S161.26,189,161.26,189s-2.95,8.07.52,9.09,15-5.55,15-7.47A15.76,15.76,0,0,0,176.06,186.37Z" style="fill:#FFC727"></path><path d="M171.52,189.91a9,9,0,0,0,1.8,4c2-1.3,3.5-2.57,3.5-3.25a15.59,15.59,0,0,0-.76-4.25s-1.14-1-2.83-2.29C172.48,185.31,171.27,187.71,171.52,189.91Z" style="fill:#050400;opacity:0.1"></path><path d="M173.44,189.26a5.14,5.14,0,1,0,4.16-6A5.13,5.13,0,0,0,173.44,189.26Z" style="fill:#FFC727"></path><path d="M152.83,194.35c45.75,25.37,93.84,36.1,104.21,35.05,25.09-2.56,68.57-8.88,86.84-14.71,6.76-2.16-15.52-51.84-22.81-49.76-22.84,6.5-74.06,17-75,17.11-6.42.72-50.38-5.9-83.48-9.24S133.28,183.51,152.83,194.35Z" style="fill:#eb9481"></path><path d="M391.39,140.12c3.9,4.39.77,9.61.77,9.61a12.59,12.59,0,0,1,6.87,5.06c2.66,4.42-3.11,10.53-3.11,10.53a15.49,15.49,0,0,1,6.39,6.49c2.12,4.49-2.82,11.48-2.82,11.48a13.71,13.71,0,0,1,2,9.24c-1,5.52-13.92,13.47-21.74,16.66s-33,4.94-37.76,5.76l-20.94-50s31-24.31,40.72-26.76C370,136.1,387,135.19,391.39,140.12Z" style="fill:#eb9481"></path><path d="M391.48,149.07c-9.24.11-17.94,2.94-26.8,5.27a.16.16,0,0,0,.09.31c8.77-2.42,17.92-3.07,26.77-5.14A.22.22,0,0,0,391.48,149.07Z" style="fill:#263238"></path><path d="M395.48,164.73a24.24,24.24,0,0,0-6.12,1.5c-2.12.67-4.24,1.39-6.34,2.13q-6.33,2.23-12.53,4.79c-.18.08-.11.38.09.31,4.2-1.48,8.42-2.9,12.68-4.2q3.19-1,6.41-1.91a28,28,0,0,0,6-2A.32.32,0,0,0,395.48,164.73Z" style="fill:#263238"></path><path d="M399.31,183.35c-1.82,0-3.76,1-5.44,1.64l-5.73,2.13c-3.83,1.39-7.65,2.79-11.52,4-.2.07-.12.37.08.31,3.94-1.26,7.9-2.47,11.83-3.77,1.93-.64,3.85-1.29,5.78-2,1.63-.56,3.74-1.07,5.08-2.22A.11.11,0,0,0,399.31,183.35Z" style="fill:#263238"></path><path d="M316.16,163.79l18.14,55.32s-62.59,12.41-80.85,12.55-76.84-17.24-103.52-34.13c-25.1-15.88-17.27-27.52,7.63-25.69s85,8.86,89.23,8.46S316.16,163.79,316.16,163.79Z" style="fill:#ebebeb"></path><path d="M303.61,166.88l17.64,57.93s-49.54,6.71-67.8,6.85-76.84-17.24-103.52-34.13c-25.1-15.88-17.27-27.52,7.63-25.69s85,8.86,89.23,8.46S303.61,166.88,303.61,166.88Z" style="fill:#263238"></path><path d="M309.84,218a3.11,3.11,0,1,1-3.93-2A3.11,3.11,0,0,1,309.84,218Z" style="fill:#37474f"></path><path d="M295.88,218.15a3.11,3.11,0,1,1-3.92-2A3.11,3.11,0,0,1,295.88,218.15Z" style="fill:#37474f"></path></g><g id="freepik--Table--inject-35"><polygon points="30.67 423 85.5 422.76 140.34 422.67 250 422.5 359.66 422.67 414.5 422.75 469.33 423 414.5 423.24 359.66 423.33 250 423.5 140.34 423.33 85.5 423.24 30.67 423" style="fill:#263238"></polygon></g><g id="freepik--magic-ball--inject-35"><polygon points="115.75 440.64 44.98 440.64 54.98 409.42 105.75 409.42 115.75 440.64" style="fill:#FFC727"></polygon><circle cx="80.37" cy="372.81" r="45.25" style="fill:#a6a6a6"></circle><path d="M45,370.12a24.57,24.57,0,0,1,.06-6.85,31.55,31.55,0,0,1,1.7-6.72,32.86,32.86,0,0,1,7.53-11.82c.82-.85,1.72-1.61,2.61-2.39s1.87-1.45,2.88-2.06A31.67,31.67,0,0,1,66,337.11a33.09,33.09,0,0,1,13.5-2.18,104.33,104.33,0,0,0-11.81,5.73,15.67,15.67,0,0,0-1.35.82c-.44.29-.9.55-1.33.85-.85.62-1.74,1.17-2.54,1.83a40.36,40.36,0,0,0-4.66,4.09,47.05,47.05,0,0,0-7.53,9.94A66.93,66.93,0,0,0,45,370.12Z" style="fill:#fff"></path><polygon points="117.84 362.06 109.03 363.69 107.05 372.99 105.08 363.69 96.26 362.05 105.05 359.9 107.05 351.12 109.06 359.9 117.84 362.06" style="fill:#fff"></polygon><polygon points="99.09 346.35 94.16 347.26 93.06 352.46 91.96 347.26 87.03 346.35 91.94 345.15 93.06 340.24 94.18 345.15 99.09 346.35" style="fill:#fff"></polygon><polygon points="91.72 372.99 89.19 373.45 88.63 376.11 88.07 373.45 85.54 372.98 88.06 372.37 88.63 369.86 89.2 372.37 91.72 372.99" style="fill:#fff"></polygon></g><g id="freepik--Sparkles--inject-35"><polygon points="408.4 371.88 402.78 372.92 401.52 378.84 400.26 372.92 394.64 371.87 400.24 370.51 401.52 364.91 402.8 370.51 408.4 371.88" style="fill:#FFC727"></polygon><polygon points="430.6 239.27 424.98 240.31 423.72 246.24 422.46 240.31 416.84 239.26 422.44 237.9 423.72 232.3 425 237.9 430.6 239.27" style="fill:#FFC727"></polygon><polygon points="452.45 348.59 446.82 349.63 445.57 355.56 444.31 349.63 438.69 348.59 444.29 347.22 445.57 341.62 446.85 347.22 452.45 348.59" style="fill:#FFC727"></polygon><polygon points="467.8 309.13 462.18 310.17 460.92 316.09 459.67 310.17 454.05 309.12 459.64 307.75 460.92 302.16 462.2 307.75 467.8 309.13" style="fill:#FFC727"></polygon><polygon points="406.83 222.33 403.69 222.91 402.99 226.23 402.29 222.91 399.14 222.33 402.27 221.57 402.99 218.44 403.71 221.57 406.83 222.33" style="fill:#FFC727"></polygon><polygon points="414.52 350.61 411.38 351.19 410.68 354.5 409.98 351.19 406.83 350.61 409.96 349.85 410.68 346.71 411.4 349.85 414.52 350.61" style="fill:#FFC727"></polygon><polygon points="436.54 369.5 433.4 370.08 432.69 373.39 431.99 370.08 428.85 369.5 431.98 368.73 432.69 365.6 433.41 368.73 436.54 369.5" style="fill:#FFC727"></polygon><polygon points="420.69 265.81 417.54 266.39 416.84 269.7 416.14 266.39 413 265.81 416.12 265.04 416.84 261.91 417.56 265.04 420.69 265.81" style="fill:#FFC727"></polygon><polygon points="387.85 109.3 384.71 109.88 384.01 113.19 383.31 109.88 380.16 109.29 383.29 108.53 384.01 105.4 384.73 108.53 387.85 109.3" style="fill:#FFC727"></polygon><polygon points="456.29 289.65 453.15 290.23 452.45 293.54 451.75 290.23 448.6 289.65 451.73 288.88 452.45 285.75 453.16 288.88 456.29 289.65" style="fill:#FFC727"></polygon><polygon points="439.45 307.81 436.31 308.39 435.6 311.71 434.9 308.39 431.76 307.81 434.89 307.05 435.6 303.92 436.32 307.05 439.45 307.81" style="fill:#FFC727"></polygon><polygon points="439.45 332.13 436.31 332.71 435.6 336.02 434.9 332.71 431.76 332.13 434.89 331.36 435.6 328.23 436.32 331.36 439.45 332.13" style="fill:#FFC727"></polygon><polygon points="379.98 365.61 376.84 366.19 376.14 369.5 375.43 366.19 372.29 365.6 375.42 364.84 376.14 361.71 376.85 364.84 379.98 365.61" style="fill:#FFC727"></polygon><polygon points="415.64 173.47 412.5 174.05 411.8 177.37 411.1 174.05 407.95 173.47 411.08 172.71 411.8 169.57 412.51 172.71 415.64 173.47" style="fill:#FFC727"></polygon><polygon points="323.14 152 320 152.58 319.3 155.9 318.59 152.58 315.45 152 318.58 151.24 319.3 148.11 320.01 151.24 323.14 152" style="fill:#FFC727"></polygon><polygon points="316.79 251.62 313.65 252.2 312.94 255.51 312.24 252.2 309.1 251.62 312.23 250.85 312.94 247.72 313.66 250.85 316.79 251.62" style="fill:#FFC727"></polygon><path d="M342,359.89a.91.91,0,0,0,0,1.82A.91.91,0,0,0,342,359.89Z" style="fill:#FFC727"></path><path d="M319.4,358.21a.92.92,0,0,0,0,1.83A.92.92,0,0,0,319.4,358.21Z" style="fill:#FFC727"></path><path d="M457.65,330.73a.91.91,0,0,0,0,1.82A.91.91,0,0,0,457.65,330.73Z" style="fill:#FFC727"></path><path d="M420.68,364a.91.91,0,0,0,0,1.82A.91.91,0,0,0,420.68,364Z" style="fill:#FFC727"></path><path d="M432.69,270.85a.91.91,0,0,0,0,1.82A.91.91,0,0,0,432.69,270.85Z" style="fill:#FFC727"></path><path d="M441.27,250a.91.91,0,0,0,0,1.82A.91.91,0,0,0,441.27,250Z" style="fill:#FFC727"></path><path d="M436.48,161.82a.91.91,0,0,0,0,1.82A.91.91,0,0,0,436.48,161.82Z" style="fill:#FFC727"></path><path d="M359.84,363.81a.91.91,0,0,0,0,1.82A.91.91,0,0,0,359.84,363.81Z" style="fill:#FFC727"></path><path d="M370.39,374.05a.91.91,0,0,0,0,1.82A.91.91,0,0,0,370.39,374.05Z" style="fill:#FFC727"></path><path d="M409.8,137.3a.64.64,0,0,0,0,1.28A.64.64,0,0,0,409.8,137.3Z" style="fill:#FFC727"></path><path d="M312.94,235.24a.65.65,0,0,0,0,1.29A.65.65,0,0,0,312.94,235.24Z" style="fill:#FFC727"></path><path d="M390.92,202.06a.65.65,0,0,0,0,1.29A.65.65,0,0,0,390.92,202.06Z" style="fill:#FFC727"></path><path d="M425.23,316.92a.65.65,0,0,0,0,1.29A.65.65,0,0,0,425.23,316.92Z" style="fill:#FFC727"></path><path d="M468.43,320a.65.65,0,0,0,0,1.29A.65.65,0,0,0,468.43,320Z" style="fill:#FFC727"></path><path d="M444.33,361.06a.65.65,0,0,0,0,1.29A.65.65,0,0,0,444.33,361.06Z" style="fill:#FFC727"></path><path d="M305.71,356.28a.64.64,0,0,0,0,1.28A.64.64,0,0,0,305.71,356.28Z" style="fill:#FFC727"></path><path d="M450.44,300.87a.65.65,0,0,0,0,1.29A.65.65,0,0,0,450.44,300.87Z" style="fill:#FFC727"></path><path d="M348,369.2a1.75,1.75,0,0,0,0,3.5A1.75,1.75,0,0,0,348,369.2Z" style="fill:#FFC727"></path><path d="M391.61,351.12a1.75,1.75,0,0,0,0,3.5A1.75,1.75,0,0,0,391.61,351.12Z" style="fill:#FFC727"></path><path d="M328.6,360a1.75,1.75,0,0,0,0,3.5A1.75,1.75,0,0,0,328.6,360Z" style="fill:#FFC727"></path><path d="M425,349.38a1.75,1.75,0,0,0,0,3.49A1.75,1.75,0,0,0,425,349.38Z" style="fill:#FFC727"></path><path d="M430.54,218.84a1.75,1.75,0,0,0,0,3.49A1.75,1.75,0,0,0,430.54,218.84Z" style="fill:#FFC727"></path><path d="M444,268a1.75,1.75,0,0,0,0,3.49A1.75,1.75,0,0,0,444,268Z" style="fill:#FFC727"></path><path d="M449.82,323.24a1.75,1.75,0,0,0,0,3.49A1.75,1.75,0,0,0,449.82,323.24Z" style="fill:#FFC727"></path><path d="M322.1,230.2a1.75,1.75,0,0,0,0,3.49A1.75,1.75,0,0,0,322.1,230.2Z" style="fill:#FFC727"></path></g><g id="freepik--magic-wand--inject-35"><rect x="144.98" y="432.03" width="137.61" height="6.57" style="fill:#263238"></rect><rect x="249.15" y="432.03" width="33.44" height="6.57" style="fill:#fff"></rect></g><g id="freepik--Cards--inject-35"><polygon points="391.7 461.15 359.03 449.8 393.07 426.31 425.74 437.67 391.7 461.15" style="fill:#fff"></polygon><path d="M391.7,461.15l-32.76-11.29-.12,0,.09-.06,34-23.52.14-.1.21.07,32.63,11.39.15,0-.11.07Zm0,0,33.89-23.53.05.12-32.71-11.33.35,0-34.13,23.46,0-.1Z" style="fill:#263238"></path><path d="M398.56,445.88l-5.67,1a46.39,46.39,0,0,0-5.3,1.52l-4,1.41,1.42-2.33a9.38,9.38,0,0,0,1.16-2.93l0-3,5.3-.89a46.46,46.46,0,0,0,5.27-1.49l4.42-1.54-1.52,2.53a9,9,0,0,0-1.14,3Z" style="fill:#FFC727"></path><path d="M394.57,431.19l-1.76.31a15.21,15.21,0,0,0-1.65.47l-1.24.44.44-.73a2.66,2.66,0,0,0,.36-.9v-.92l1.64-.28a12.62,12.62,0,0,0,1.64-.46l1.37-.48-.47.79a2.84,2.84,0,0,0-.36.92Z" style="fill:#FFC727"></path><path d="M394,457.12l-1.76.31a15.21,15.21,0,0,0-1.65.47l-1.24.44.44-.72a2.79,2.79,0,0,0,.36-.91v-.92l1.65-.27a14.84,14.84,0,0,0,1.63-.47l1.37-.47-.47.78a2.81,2.81,0,0,0-.35.92Z" style="fill:#FFC727"></path><polygon points="376.98 452.67 337.81 448.55 350.13 420.37 389.3 424.5 376.98 452.67" style="fill:#fff"></polygon><path d="M377,452.67l-39.2-4.05h-.14l0-.07,12.22-28.2.05-.12.24,0,39.15,4.16.18,0,0,.09Zm0,0,12.14-28.19.14.11-39.18-4.1.29-.1L338,448.57l-.11-.09Z" style="fill:#263238"></path><path d="M354,423.8c-.17.4-1,.65-1.78.57s-1.32-.48-1.15-.88,1-.64,1.78-.56S354.19,423.41,354,423.8Z" style="fill:#263238"></path><path d="M357,424.11c-.18.4-1,.65-1.78.56s-1.32-.47-1.15-.87,1-.64,1.78-.56S357.12,423.72,357,424.11Z" style="fill:#263238"></path><path d="M356,422.88c-.17.4-1,.65-1.77.57s-1.33-.48-1.16-.87,1-.65,1.78-.57S356.12,422.49,356,422.88Z" style="fill:#263238"></path><path d="M354.39,425.27l-1.93-.2s.87-.21,1.08-.69.6-1.37.6-1.37l.43.05-.6,1.36C353.76,424.91,354.39,425.27,354.39,425.27Z" style="fill:#263238"></path><path d="M372.91,449.66c-.18.39-1,.65-1.78.56s-1.32-.47-1.15-.87,1-.65,1.78-.56S373.08,449.26,372.91,449.66Z" style="fill:#263238"></path><path d="M375.83,450c-.17.39-1,.64-1.77.56s-1.33-.48-1.15-.87,1-.65,1.77-.57S376,449.57,375.83,450Z" style="fill:#263238"></path><path d="M374.84,448.74c-.17.39-1,.65-1.78.56s-1.32-.47-1.15-.87,1-.65,1.78-.56S375,448.34,374.84,448.74Z" style="fill:#263238"></path><path d="M373.27,451.12l-1.93-.2s.88-.2,1.09-.69l.6-1.36.43,0s-.39.88-.6,1.37S373.27,451.12,373.27,451.12Z" style="fill:#263238"></path><path d="M363.22,437.3c-.64,1.45-3.55,2.37-6.51,2.06s-4.85-1.74-4.21-3.19,3.54-2.37,6.5-2.06S363.85,435.85,363.22,437.3Z" style="fill:#263238"></path><path d="M373.93,438.43c-.63,1.44-3.54,2.37-6.5,2.06s-4.85-1.74-4.21-3.19,3.54-2.37,6.5-2.06S374.57,437,373.93,438.43Z" style="fill:#263238"></path><path d="M370.29,433.93c-.63,1.45-3.54,2.37-6.5,2.06s-4.85-1.74-4.22-3.19,3.55-2.37,6.51-2.06S370.93,432.48,370.29,433.93Z" style="fill:#263238"></path><path d="M364.56,442.67l-7.06-.74s3.2-.74,4-2.53,2.18-5,2.18-5l1.57.17s-1.4,3.19-2.18,5S364.56,442.67,364.56,442.67Z" style="fill:#263238"></path><polygon points="353.5 447.57 314.13 451.16 303.35 422.79 342.72 419.23 353.5 447.57" style="fill:#fff"></polygon><path d="M353.5,447.57l-39.34,3.66-.15,0,0-.08L303.1,422.82l0-.12.24,0,39.39-3.53.18,0,0,.09Zm0,0-11-28.33.22.07-39.37,3.6.2-.14,10.69,28.38-.18-.06Z" style="fill:#263238"></path><path d="M316.68,433.59a1.08,1.08,0,0,1-.08-.19c-.55-1.46,1.41-2.86,4.39-3.13a9.22,9.22,0,0,1,5.9,1.85,2.22,2.22,0,0,1,.72.92,1.31,1.31,0,0,1,0-1,4.94,4.94,0,0,1,4.15-2.76c3-.27,5.84.7,6.39,2.16l.06.19h0a.47.47,0,0,1,.05.1c.64,1.69-2.26,3.64-4.38,5.57-1.88,1.71-3.4,3.28-3.4,3.28s-2.57-1.2-5.59-2.47c-3.39-1.42-7.54-2.73-8.18-4.42a.43.43,0,0,1,0-.11Z" style="fill:#FFC727"></path><path d="M343.9,444.4a.14.14,0,0,1,0-.06c-.16-.41.39-.8,1.23-.88a2.6,2.6,0,0,1,1.67.52.61.61,0,0,1,.2.26.39.39,0,0,1,0-.28,1.4,1.4,0,0,1,1.17-.78c.84-.07,1.65.2,1.8.61l0,0h0l0,0c.18.48-.64,1-1.24,1.57s-1,.93-1,.93-.72-.34-1.57-.7-2.13-.77-2.31-1.24a0,0,0,0,1,0,0Z" style="fill:#FFC727"></path><path d="M306.33,425.07a.08.08,0,0,1,0-.05c-.16-.41.39-.8,1.23-.88a2.6,2.6,0,0,1,1.67.52.7.7,0,0,1,.2.26.34.34,0,0,1,0-.28,1.38,1.38,0,0,1,1.17-.78c.84-.07,1.65.2,1.8.61l0,0h0a0,0,0,0,1,0,0c.19.48-.63,1-1.23,1.57s-1,.93-1,.93-.72-.34-1.58-.7-2.12-.77-2.3-1.24a0,0,0,0,1,0,0Z" style="fill:#FFC727"></path><polygon points="329.86 450.7 295.94 461.14 264.66 436.69 298.58 426.26 329.86 450.7" style="fill:#fff"></polygon><path d="M329.86,450.7,296,461.2l-.13,0-.08-.06-31.36-24.43-.14-.1.21-.07,34-10.4.16,0,.1.07Zm0,0-31.43-24.39.25,0-33.89,10.46.08-.17,31.2,24.48-.21,0Z" style="fill:#263238"></path><path d="M306.73,447.77l-6.12,1.88s1.24-1.62-.75-3.18l-5.54-4.33,1.36-.42,5.54,4.34C303.21,447.61,306.73,447.77,306.73,447.77Z" style="fill:#263238"></path><path d="M307.19,441.36l.22.16c1.61,1.26.83,2.91-1.73,3.7a10.46,10.46,0,0,1-6.2-.12,5,5,0,0,1-1.36-.73,2.2,2.2,0,0,1,.74.92c.42,1.06-.49,2.18-2.47,2.79-2.56.79-5.94.41-7.55-.85l-.19-.17h0l-.12-.09c-1.87-1.45-.63-3.8-.1-6a37.17,37.17,0,0,0,.69-3.67s3.29.66,7.05,1.29c4.22.71,9.06,1.19,10.92,2.65a.48.48,0,0,1,.11.09Z" style="fill:#263238"></path><path d="M274.54,438.76l-1.46.45a.53.53,0,0,0-.17-.76l-1.32-1,.32-.1,1.32,1A2.72,2.72,0,0,0,274.54,438.76Z" style="fill:#263238"></path><path d="M274.65,437.23l.05,0c.39.3.2.69-.41.88a2.37,2.37,0,0,1-1.47,0,1,1,0,0,1-.33-.17.52.52,0,0,1,.18.22c.1.25-.12.52-.59.66a2.22,2.22,0,0,1-1.8-.2l0,0h0l0,0c-.44-.35-.15-.91,0-1.42s.16-.88.16-.88.79.16,1.68.31a7.75,7.75,0,0,1,2.61.63s0,0,0,0Z" style="fill:#263238"></path><path d="M324.9,450.9l-1.45.45a.54.54,0,0,0-.18-.76l-1.32-1,.32-.1,1.32,1A2.75,2.75,0,0,0,324.9,450.9Z" style="fill:#263238"></path><path d="M325,449.37l.06,0c.38.3.19.69-.42.88a2.45,2.45,0,0,1-1.47,0,1,1,0,0,1-.33-.17.52.52,0,0,1,.18.22c.1.25-.12.52-.59.66a2.23,2.23,0,0,1-1.8-.2l0,0h0l0,0c-.45-.35-.15-.91,0-1.42s.17-.88.17-.88.78.16,1.68.31a7.75,7.75,0,0,1,2.6.63l0,0Z" style="fill:#263238"></path></g></svg>