<?xml version="1.0" standalone="no"?>
<!DOCTYPE svg PUBLIC "-//W3C//DTD SVG 20010904//EN"
 "http://www.w3.org/TR/2001/REC-SVG-20010904/DTD/svg10.dtd">
<svg version="1.0" xmlns="http://www.w3.org/2000/svg"
 width="750.000000pt" height="486.000000pt" viewBox="0 0 750.000000 486.000000"
 preserveAspectRatio="xMidYMid meet">

<g transform="translate(0.000000,486.000000) scale(0.100000,-0.100000)"
fill="#263238" stroke="none">
<path d="M6553 3650 c-52 -23 -168 -98 -244 -156 l-55 -42 -60 28 c-150 74
-236 38 -235 -99 0 -57 24 -136 56 -185 15 -22 14 -26 -7 -59 -13 -20 -26 -36
-29 -37 -4 0 -10 17 -14 38 -9 46 -21 62 -50 62 -33 0 -37 -21 -20 -117 30
-174 15 -368 -36 -450 -27 -43 -70 -66 -102 -54 -65 25 -119 101 -150 211 -25
91 -30 129 -36 279 -5 122 -9 146 -23 155 -14 8 -22 7 -35 -6 -15 -15 -16 -42
-14 -246 2 -186 -1 -240 -14 -293 -42 -164 -135 -136 -165 51 -5 36 -10 156
-10 267 0 172 -2 204 -16 218 -9 9 -24 15 -33 13 -14 -3 -17 -31 -24 -213 -9
-241 -20 -327 -50 -386 -26 -51 -45 -64 -80 -56 -63 17 -91 176 -78 447 7 135
6 169 -5 188 -16 25 -36 29 -51 10 -6 -7 -13 -76 -16 -153 -10 -246 -65 -409
-156 -467 -40 -25 -47 -26 -65 -14 -77 50 -105 171 -106 452 0 144 -3 174 -16
185 -25 20 -49 -1 -52 -47 -1 -21 -9 -87 -17 -146 -34 -237 -121 -398 -240
-444 -44 -16 -45 -16 -89 10 -76 45 -138 137 -217 323 -128 304 -138 321 -178
308 -32 -10 -26 -39 29 -163 89 -202 104 -259 104 -402 1 -122 0 -127 -32
-193 -40 -81 -102 -146 -204 -215 -78 -52 -89 -67 -66 -90 20 -20 42 -14 108
29 133 86 244 241 271 379 7 36 14 67 15 69 2 2 17 -13 35 -33 17 -20 53 -49
78 -63 25 -15 52 -31 60 -37 57 -44 280 88 327 195 l18 39 16 -53 c24 -77 45
-111 92 -151 50 -44 87 -46 149 -11 55 30 93 69 118 120 l19 40 11 -41 c17
-65 63 -119 116 -139 43 -17 49 -17 80 -2 41 20 62 49 84 122 l17 55 18 -56
c24 -77 72 -128 118 -127 19 0 49 8 67 17 35 19 79 81 88 126 8 40 19 46 27
14 9 -34 82 -111 128 -135 50 -26 89 -24 148 6 65 33 103 85 135 180 5 17 9
14 24 -20 56 -121 131 -176 252 -183 98 -6 120 0 169 44 42 38 80 121 80 175
0 21 4 29 13 26 203 -88 234 -97 342 -97 100 0 160 26 189 81 19 35 19 38 2
82 -10 26 -39 66 -70 97 l-53 52 28 95 c32 107 59 238 59 290 0 54 -32 78
-113 87 -119 12 -157 38 -213 148 -47 93 -72 104 -151 68z m-441 -581 c30 -41
181 -168 270 -227 l70 -46 -6 -56 c-9 -71 -41 -137 -77 -155 -37 -19 -110 -19
-157 1 -76 31 -129 104 -172 236 -18 58 -20 73 -10 134 11 71 37 144 51 144 5
0 19 -14 31 -31z"/>
<path d="M4386 3456 c-35 -34 -35 -78 1 -106 33 -26 80 -21 104 12 l17 21 11
-21 c15 -29 65 -38 96 -18 48 32 44 95 -7 122 -24 13 -35 13 -58 4 -16 -7 -31
-19 -35 -27 -5 -14 -9 -13 -28 5 -37 35 -72 38 -101 8z"/>
<path d="M2552 3218 c-7 -7 -12 -35 -12 -62 0 -77 -27 -232 -56 -319 -35 -104
-95 -193 -158 -232 l-49 -30 -651 -3 c-596 -2 -652 -4 -663 -19 -7 -9 -13 -20
-13 -24 0 -20 32 -35 76 -38 96 -5 174 -56 174 -115 0 -87 -166 -146 -418
-149 -139 -1 -178 10 -232 68 -22 23 -25 36 -25 98 0 88 24 140 103 227 54 61
62 90 26 104 -34 13 -124 -91 -178 -204 -26 -56 -31 -77 -31 -146 0 -71 3 -85
27 -121 19 -28 45 -50 85 -70 52 -25 70 -28 180 -32 275 -7 475 54 524 163 25
55 24 83 -6 135 -14 23 -25 44 -25 45 0 0 237 0 527 -2 440 -2 529 0 542 12 9
7 36 24 60 36 59 29 145 112 170 162 l20 41 6 -29 c17 -76 40 -121 87 -166 71
-68 94 -67 283 5 95 35 111 36 190 7 125 -46 300 -23 377 51 33 31 38 42 38
80 0 51 -32 110 -93 170 -36 36 -36 37 -30 101 12 135 -72 230 -214 244 -39 3
-76 0 -113 -11 -73 -22 -86 -22 -147 5 -50 23 -53 23 -72 6 -25 -23 -19 -39
25 -62 19 -10 34 -20 34 -22 0 -2 -11 -18 -24 -35 -93 -122 -88 -278 14 -398
l41 -48 -36 -16 c-20 -8 -68 -24 -107 -36 -70 -20 -71 -20 -97 -2 -33 24 -67
92 -82 163 -7 30 -13 144 -14 252 -2 141 -6 202 -15 213 -15 18 -32 19 -48 3z
m679 -98 c53 -15 90 -59 97 -115 l5 -46 -116 77 c-64 42 -114 81 -111 85 7 12
81 11 125 -1z m-107 -120 c61 -38 124 -80 141 -93 28 -24 29 -25 13 -49 -19
-30 -134 -118 -195 -150 l-42 -22 -38 30 c-80 65 -113 145 -94 230 12 54 62
124 88 124 9 0 66 -31 127 -70z m279 -219 c55 -72 49 -114 -21 -150 -43 -23
-242 -8 -242 17 0 4 20 19 44 35 24 15 72 54 107 87 35 32 66 59 69 60 3 0 23
-22 43 -49z"/>
<path d="M2346 2374 c-22 -21 -31 -64 -19 -83 33 -52 105 -51 128 1 14 34 11
53 -13 81 -19 21 -75 22 -96 1z"/>
<path d="M2527 2378 c-9 -7 -20 -27 -23 -45 -5 -26 -1 -37 19 -57 54 -53 128
-13 117 64 -6 44 -74 66 -113 38z"/>
<path d="M2455 2225 c-34 -33 -33 -77 1 -104 15 -12 34 -21 44 -21 34 0 70 39
70 75 0 24 -7 39 -26 54 -35 27 -59 26 -89 -4z"/>
<path d="M3056 2051 c-18 -20 -18 -22 -1 -68 40 -104 37 -166 -15 -278 -57
-125 -243 -348 -382 -459 -97 -78 -234 -148 -333 -172 -111 -27 -278 -23 -389
10 -195 58 -405 195 -601 391 -123 123 -188 213 -212 295 -14 47 -14 63 -3
110 28 124 25 180 -11 180 -32 0 -60 -18 -127 -84 -40 -39 -88 -74 -134 -96
-86 -42 -114 -74 -99 -113 16 -41 47 -51 126 -38 38 5 72 8 76 5 5 -3 63 -70
130 -150 240 -286 414 -443 596 -537 224 -115 497 -146 721 -81 250 73 407
213 692 616 l125 177 55 6 c77 9 88 13 95 36 13 39 -4 68 -62 106 -31 21 -78
65 -103 98 -41 53 -51 60 -86 63 -30 2 -45 -2 -58 -17z"/>
</g>
</svg>
